<svg width="487" height="383" viewBox="0 0 487 383" fill="none" xmlns="http://www.w3.org/2000/svg">

<style>
    path.m {
        fill:#9862F0;
        cursor: pointer;
        transition: fill-opacity .2s cubic-bezier(.215, .61, .355, 1);
    }

    path.m.c {
        fill:#4DFF94;
    }

    .m:hover {
        fill-opacity:60%;
    }
</style>

<g id="London">
<path class="m" id="Hillingdon" d="M1.86938 69.6071L2.36938 77.1071L4.36938 79.774L3.61938 87.3571L4.03638 92.107L0.619385 94.107C0.619385 94.107 3.03638 95.774 3.03638 99.107C3.03638 102.44 2.36938 105.774 2.36938 105.774C2.36938 105.774 7.03539 107.774 9.70238 117.107C12.3694 126.44 13.3694 132.357 13.3694 132.357L15.0364 134.44L15.6194 138.523L14.3694 142.44H11.7024L10.3694 145.773L8.95238 149.857L7.11938 153.773C7.11938 153.773 8.78638 157.107 8.78638 163.107C8.78638 169.107 9.45338 175.69 9.45338 175.69C9.45338 175.69 13.8704 182.69 13.0364 186.44C11.1064 195.124 8.45338 197.19 8.45338 197.19L6.45338 199.94L3.37038 208.19L6.37038 215.773L11.0374 217.107L19.0374 223.107L29.7874 223.357L35.8773 227.479L36.2567 226.32C37.2725 226.652 38.1114 227.051 38.7604 227.36L38.9451 227.447C39.6715 227.791 40.0478 227.942 40.3741 227.995C40.7279 228.052 41.5158 228.106 43.7757 226.066C45.6355 224.386 46.6733 221.58 47.1343 218.489C47.5875 215.449 47.4304 212.487 47.2141 210.912C47.0779 209.92 47.1786 208.952 47.6249 208.099C48.0768 207.235 48.7789 206.688 49.4844 206.369C50.2414 206.025 51.0497 205.917 51.7643 205.921C52.7456 204.334 53.5202 201.849 54.0555 199.001C54.6713 195.725 54.9018 192.368 54.9239 190.306L54.9268 190.038L55.0004 189.779C55.2988 188.733 55.9388 187.189 56.9433 185.795C57.9298 184.426 59.471 182.927 61.6403 182.527C62.9326 182.289 63.6295 181.733 64.0849 181.032C64.5957 180.247 64.9075 179.109 65.0379 177.588C65.2181 175.486 66.1267 173.508 67.1463 171.946C68.0434 170.571 70.1039 169.371 70.7594 168.01C70.9767 167.559 70.8098 166.835 70.7678 166.368C70.7099 165.731 70.652 165.093 70.6291 164.453C70.6126 163.991 70.6625 163.535 70.7217 163.169C70.4989 163.123 70.2236 163.075 69.8847 163.026C68.6467 162.846 66.7763 162.678 63.9556 162.488C54.2389 161.835 49.5744 156.637 48.4498 153.479L47.7009 151.376L62.2125 147.94C62.1114 147.377 62.0567 146.765 62.0932 146.145C62.1218 145.658 62.2959 145.27 62.419 145.039C62.5534 144.787 62.7146 144.562 62.8649 144.374C63.1651 143.999 63.547 143.616 63.9463 143.249C64.7533 142.509 65.8228 141.663 66.9562 140.819C68.7479 139.486 70.8026 138.084 72.4716 136.987C70.3195 129.668 67.0415 118.895 63.7088 108.688C60.1579 97.8132 56.6014 87.7612 54.2908 83.133L34.8704 78.022L34.7034 81.772L29.0364 86.355L18.3694 78.105L13.0364 76.44L8.70338 69.69L1.86938 69.6071Z" fill="#FFFCFC"/>
<path class="m" id="Harrow" d="M59.281 84.4463C61.6243 89.9672 64.6086 98.5572 67.5112 107.447C70.8748 117.748 74.1802 128.615 76.3405 135.965C78.7184 136.047 82.715 135.749 86.0826 134.121C88.9278 132.746 91.9155 132.905 94.3519 133.542C95.2552 133.778 96.1096 134.087 96.8895 134.428C96.9323 133.784 97.1923 133.268 97.4282 132.913C97.6858 132.527 98.0024 132.203 98.2709 131.952C98.5456 131.696 98.8489 131.445 99.1156 131.225L99.2078 131.149L99.209 131.149C99.4543 130.947 99.6783 130.763 99.8965 130.571C101.025 129.58 100.976 129.243 100.91 129.037C100.242 126.966 100.566 125.259 101.26 123.925C101.709 123.063 102.42 122.246 102.793 121.83C102.796 121.756 102.798 121.665 102.798 121.553C102.795 121.049 102.738 120.36 102.637 119.56C102.437 117.974 102.095 116.168 101.841 114.992L101.308 112.529L103.828 112.57C106.066 112.606 107.974 111.357 109.956 109.589C110.406 109.188 110.839 108.78 111.278 108.367L111.38 108.271C111.844 107.833 112.324 107.384 112.796 106.976C113.68 106.214 114.821 105.34 116.14 105.051C118.298 104.579 120.53 105.177 122.389 105.83C123.191 106.112 124.005 106.436 124.771 106.741C124.918 106.799 125.063 106.857 125.207 106.914C125.634 107.083 126.047 107.244 126.446 107.392C126.205 106.626 125.841 105.775 125.474 105.044C125.286 104.669 125.107 104.345 124.956 104.096C124.818 103.87 124.738 103.763 124.719 103.738C124.715 103.732 124.714 103.73 124.716 103.733C124.198 103.163 124.108 102.496 124.136 102.043C124.163 101.619 124.294 101.264 124.397 101.031C124.607 100.558 124.93 100.094 125.239 99.6943C125.88 98.8661 126.809 97.8818 127.808 96.8943C129.296 95.4232 131.064 93.8245 132.576 92.5075C128.359 87.3205 123.791 81.6575 120.196 76.8371C118.225 74.1943 116.515 71.7639 115.309 69.7815C114.709 68.7935 114.204 67.8709 113.855 67.0603C113.546 66.3423 113.206 65.3834 113.301 64.4577C113.596 61.5657 115.348 58.1465 117.035 55.2337C117.045 55.2166 117.055 55.1994 117.065 55.1823C114.441 54.8213 111.909 54.876 109.703 56.9401C100.62 65.4401 84.2034 72.2731 84.2034 72.2731L78.1204 77.6061L60.2034 84.6891L59.281 84.4463Z" fill="#FFFCFC"/>
<path class="m" id="Barnet" d="M121.304 55.8724C121.033 56.3234 120.763 56.7793 120.497 57.2384C118.791 60.1839 117.508 62.875 117.288 64.7928C117.289 64.7956 117.291 64.8042 117.295 64.8192C117.312 64.8886 117.363 65.0937 117.529 65.4777C117.773 66.0455 118.171 66.7895 118.727 67.703C119.834 69.5235 121.455 71.8351 123.402 74.4457C127.29 79.6588 132.355 85.9009 136.909 91.4946L137.557 92.2908L137.558 92.2921C140.073 95.3813 142.404 98.2445 144.235 100.564C145.228 101.823 146.086 102.937 146.753 103.85C147.389 104.722 147.939 105.529 148.231 106.126C149.336 108.386 149.959 109.885 150.436 111.587C150.828 112.988 151.115 114.514 151.52 116.665C151.589 117.035 151.662 117.423 151.74 117.832C151.981 119.104 152.284 119.513 152.375 119.604C152.379 119.608 152.383 119.612 152.385 119.614C152.388 119.616 152.391 119.619 152.391 119.619C152.408 119.624 152.47 119.636 152.603 119.629C152.979 119.609 153.427 119.484 154.219 119.264L154.282 119.246C154.996 119.048 155.999 118.773 157.045 118.773C158.038 118.773 158.886 119.329 159.374 119.688C159.966 120.122 160.59 120.704 161.214 121.349C162.469 122.647 163.911 124.402 165.364 126.296C167.54 129.133 169.817 132.384 171.648 135.107C171.676 135.067 171.705 135.028 171.735 134.988C172.397 134.09 173.326 133.71 174.214 133.66C174.995 133.616 175.724 133.823 176.235 133.999C176.618 134.13 177.037 134.305 177.363 134.441C177.438 134.472 177.509 134.501 177.573 134.528C177.939 133.994 178.386 133.218 178.874 132.288C179.894 130.342 180.964 127.963 181.637 126.365L181.941 125.642L182.655 125.319C183.861 124.773 185.02 123.786 186.009 122.674C186.99 121.572 187.698 120.467 188.027 119.842L189.142 117.724L191.028 119.197C191.17 119.308 191.702 119.492 192.786 119.413C193.014 119.396 193.244 119.369 193.469 119.335C193.279 118.434 193.22 117.593 193.282 116.801C193.393 115.385 193.879 114.266 194.469 113.364C194.932 112.655 195.496 112.038 195.901 111.594C196.191 111.276 196.606 110.943 196.729 110.531C196.757 110.436 196.786 110.338 196.815 110.237L196.817 110.231C196.941 109.806 197.077 109.343 197.22 108.967C197.388 108.526 197.715 107.772 198.438 107.255C199.284 106.651 200.215 106.666 200.927 106.828C201.457 106.949 202.008 107.18 202.564 107.459C202.279 106.462 201.756 104.763 200.859 101.999C199.389 97.4729 198.878 94.2296 199.426 91.7735C200.033 89.0517 201.832 87.6797 203.681 86.6896C204.741 86.1216 206.048 85.7744 207.289 86.4371C207.916 86.772 208.328 87.2817 208.594 87.7166C208.834 87.3673 209.081 86.9222 209.32 86.3847C209.617 85.7186 209.848 85.0303 210.012 84.4442C209.397 83.6296 208.81 82.553 208.488 81.2944C208.009 79.4188 208.131 77.1545 209.584 74.9043C209.767 74.6215 209.952 74.3366 210.138 74.0503C211.426 72.0691 212.761 70.0155 213.633 68.0725C214.698 65.7008 214.649 64.4136 214.179 63.7567C213.667 63.039 212.961 62.2118 212.073 61.1703L212.03 61.1202C211.145 60.0822 210.123 58.8797 209.1 57.5232C207.049 54.8045 204.947 51.4066 203.749 47.1822C203.57 46.5516 203.405 45.9569 203.249 45.3933C202.907 44.1637 202.607 43.0817 202.294 42.0957C201.841 40.6659 201.418 39.6274 200.938 38.8644C200.482 38.1408 199.999 37.7032 199.403 37.4241C198.776 37.1305 197.86 36.9362 196.426 36.9874C190.978 37.182 187.272 36.1145 185.855 35.3519L183.822 34.2567L185.197 32.4005C185.474 32.0254 185.958 31.2254 186.345 30.2129C186.417 30.0245 186.484 29.8331 186.544 29.64L179.119 35.0231L176.536 31.5231C176.536 31.5231 167.869 37.8561 166.536 40.5231C165.203 43.1901 163.369 45.1061 163.369 45.1061C163.369 45.1061 153.952 28.5231 153.952 23.8561C153.952 19.85 149.839 30.5196 147.83 35.7302C147.498 36.5899 147.224 37.301 147.035 37.7731C146.363 39.4523 146.241 41.83 146.116 44.2876C145.992 46.7077 145.864 49.2054 145.202 51.1901C143.869 55.1901 142.035 55.6071 142.035 55.6071L135.786 52.9401C135.786 52.9401 131.036 54.4401 125.703 55.7731C124.275 56.1302 122.795 56.0695 121.304 55.8724Z" fill="#FFFCFC"/>
<path class="m" id="Enfield" d="M189.696 26.8986L190.896 26.8186C191.015 28.5989 190.595 30.2963 190.081 31.64C189.972 31.9263 189.856 32.2025 189.737 32.4664C191.196 32.797 193.397 33.093 196.284 32.9899C198.111 32.9247 199.714 33.1526 201.1 33.8017C202.517 34.4654 203.541 35.4911 204.323 36.7331C205.08 37.9356 205.625 39.365 206.107 40.8873C206.442 41.9441 206.774 43.1374 207.126 44.4063C207.279 44.9553 207.435 45.5185 207.597 46.0909C208.613 49.6706 210.413 52.6209 212.293 55.1146C213.236 56.3643 214.186 57.4842 215.074 58.5245L215.19 58.6609C216.014 59.6268 216.819 60.5707 217.434 61.4317C219.295 64.0362 218.372 67.2823 217.282 69.7107C216.272 71.9613 214.746 74.3051 213.477 76.2547L213.473 76.2599C213.291 76.54 213.114 76.812 212.944 77.0743C212.161 78.2869 212.128 79.3842 212.363 80.3039C212.491 80.8015 212.699 81.2507 212.925 81.6222C214.513 81.306 216.816 81.2312 219.4 81.9911C221.333 82.5596 227.157 84.1666 233.977 85.2697C240.861 86.3833 248.478 86.9341 254.127 85.5761C259.16 84.3662 262.994 84.2482 265.796 84.6626C267.021 84.8437 268.098 85.1354 269.002 85.5099C267.288 83.7153 266.896 81.1322 267.039 78.7365C267.108 77.5613 267.646 76.5618 268.204 75.7912C268.769 75.0093 269.485 74.2889 270.151 73.6624C271.2 72.6763 272.512 71.7569 273.307 70.5559C274.363 68.963 274.759 67.8787 274.882 67.1101C275.048 66.0675 274.684 65.1211 274.279 64.184C273.677 62.789 272.781 60.7114 272.98 57.9642C273.215 54.7188 274.166 52.6846 275.525 51.2387C276.166 50.5567 276.842 50.0674 277.388 49.6893C279.126 48.4839 280.708 47.0947 282.286 45.6891L282.369 36.4391L280.203 34.7721L281.369 23.9401L282.703 17.1901L260.369 15.1071L255.036 16.4401L246.369 11.7731L228.369 11.1061L219.702 6.43906L215.119 7.43906L203.702 7.77206L196.369 0.439056L196.536 16.5231L189.696 26.8986Z" fill="#FFFCFC"/>
<path class="m" id="Haringey" d="M212.975 88.0103C213.358 87.1503 213.654 86.2754 213.866 85.5151C214.815 85.3507 216.394 85.2764 218.271 85.8286C220.298 86.4249 226.296 88.0793 233.338 89.2184C240.315 90.347 248.597 91.0193 255.062 89.4653C258.684 88.5945 262.776 87.9043 266.462 88.8713C264.671 90.6176 262.239 93.3519 261.522 95.7979C260.342 99.822 259.028 102.875 256.091 106.123C254.501 107.882 253.116 110.06 253.073 112.501L232.837 113.46L234.082 120.264L232.622 122.178L226.927 113.516L213.739 121.053C212.122 119.879 209.422 118.507 205.851 117.943C202.517 117.416 199.447 117.774 197.337 118.274C197.257 117.809 197.245 117.427 197.27 117.113C197.318 116.489 197.521 116.006 197.817 115.552C198.089 115.136 198.397 114.797 198.795 114.359C198.888 114.256 198.986 114.149 199.089 114.033C199.549 113.52 200.251 112.72 200.563 111.67C200.605 111.53 200.64 111.409 200.673 111.297L200.673 111.295C200.701 111.201 200.727 111.113 200.753 111.025C200.855 111.077 200.968 111.135 201.091 111.201C201.802 111.581 202.572 111.84 203.37 111.826C204.228 111.812 204.976 111.481 205.533 110.935C205.96 110.516 206.226 110.024 206.388 109.547C206.704 109.14 206.772 108.73 206.789 108.627C206.819 108.443 206.818 108.291 206.816 108.213C206.811 108.051 206.79 107.908 206.776 107.824C206.745 107.639 206.695 107.422 206.636 107.19C206.4 106.259 205.827 104.346 204.664 100.764C203.221 96.3217 203.034 93.974 203.33 92.6444C203.558 91.6212 204.112 91.0195 205.412 90.3014C205.475 90.4443 205.552 90.6152 205.624 90.7581C205.755 91.0146 205.996 91.4489 206.41 91.8158C206.892 92.2441 207.554 92.5298 208.331 92.4843C209.012 92.4444 209.588 92.1601 210.025 91.8766C211.461 90.9432 212.394 89.3178 212.975 88.0103Z" fill="#FFFCFC"/>
<path class="m" id="Waltham" d="M279.177 53.3289C277.609 54.5152 277.108 56.3389 276.969 58.2533C276.847 59.9399 277.249 60.8863 277.781 62.1406C278.545 63.9405 279.15 65.7522 278.832 67.7413C278.589 69.2627 277.887 70.8868 276.642 72.7655C275.655 74.2541 274.182 75.3629 272.891 76.5769C272.271 77.159 271.781 77.6702 271.444 78.1358C270.628 79.2644 270.88 81.1702 271.56 82.308C272.088 83.1919 273.147 83.4909 273.802 84.2525C274.41 84.9597 274.585 85.9306 274.262 86.8059C273.753 88.1836 272.297 89.1779 271.192 90.0471C269.389 91.4652 266.091 94.4301 265.36 96.923C264.015 101.513 262.382 105.13 259.058 108.806C257.906 110.08 256.578 111.865 257.279 113.668C258.66 117.226 263.138 119.111 264.879 122.536C265.46 123.68 265.968 124.334 266.408 124.73C266.819 125.1 267.235 125.304 267.758 125.433C269.579 125.882 271.772 125.652 273.627 125.799C276.553 126.031 278.881 128.035 280.477 129.954C281.675 131.393 282.635 132.992 283.308 134.347C283.767 134.344 284.283 134.362 284.821 134.389C287.927 134.548 291.027 134.942 294.141 134.928C294.825 134.925 295.403 134.896 295.859 134.84C298.032 134.575 299.942 132.77 301.668 131.613C301.394 131.117 301.16 130.559 300.973 129.954C300.37 128.004 300.154 125.297 300.685 121.649C301.266 117.661 300.806 113.401 300.039 109.818C299.269 106.221 298.229 103.484 297.78 102.587C297.483 101.992 297.355 101.278 297.284 100.686C297.206 100.04 297.171 99.2954 297.164 98.5089C297.15 96.9322 297.249 95.0478 297.409 93.1682C297.768 88.9409 298.5 84.9939 299.743 81.0004C300.031 80.0741 300.176 79.3293 300.144 78.7567C300.117 78.2732 299.979 78.0094 299.687 77.7852C299.302 77.4895 298.421 77.0993 296.54 77.0043C295.45 76.9492 294.206 76.7549 293.321 76.0122C292.803 75.5779 292.435 74.9775 292.329 74.2608C292.231 73.5976 292.381 73.0059 292.56 72.5639C292.902 71.7209 293.55 70.938 294.171 70.2878C294.829 69.5987 295.635 68.8782 296.482 68.1647C297.411 67.3831 298.521 66.5042 299.6 65.6503C300.402 65.0154 301.187 64.3944 301.867 63.8373C302.714 63.1429 303.462 62.4987 304.062 61.9191C304.684 61.3178 305.045 60.8804 305.209 60.6036L305.442 60.7414L306.119 58.7741L303.036 53.5241L292.869 53.8571L283.869 48.1901L282.203 53.5231L279.177 53.3289Z" fill="#FFFCFC"/>
<path class="m" id="Newham" d="M347.956 169.056C347.99 169.337 348.04 169.666 348.127 170.011C346.523 170.765 344.663 171.811 342.864 173.134C340.103 175.163 337.298 177.981 335.921 181.578C335.395 182.949 334.58 183.61 333.567 183.966C332.44 184.363 330.961 184.41 329.177 184.215C327.837 184.068 326.494 183.81 325.135 183.548C324.683 183.461 324.229 183.373 323.773 183.289C318.926 182.399 314.752 183.893 309.871 184.228C308.29 184.337 306.848 184.334 305.682 184.173C304.456 184.003 303.842 183.699 303.6 183.471C302.072 182.032 300.714 180.718 299.805 179.828C300.209 178.624 300.517 177.124 300.483 175.552C300.433 173.256 299.636 170.654 297.186 168.783C292.687 165.348 289.951 161.797 289.684 158.259C289.591 157.023 289.366 156.022 288.878 155.211C288.409 154.433 287.783 154.005 287.467 153.789C287.439 153.77 287.413 153.753 287.391 153.737C287.132 153.556 287.013 153.461 286.864 153.225C286.679 152.933 286.4 152.328 286.134 151.058C285.259 146.871 284.438 144.303 284.002 143.248C283.787 142.198 283.549 140.705 283.478 139.427C283.454 139.001 283.452 138.639 283.466 138.347C283.783 138.348 284.167 138.361 284.617 138.384C287.799 138.547 290.968 138.942 294.159 138.928C294.927 138.924 295.675 138.892 296.344 138.811C299.618 138.411 302.591 135.856 305.205 134.043C306.757 134.193 308.787 134.292 310.566 134.165C311.587 134.091 312.691 133.934 313.599 133.577C314.402 133.262 315.874 132.431 315.874 130.637C315.874 129.971 315.798 129.31 315.716 128.65C316.892 128.831 317.844 129.589 319.061 129.621C319.708 129.637 320.38 129.511 321.124 129.295C321.451 129.2 321.565 129.186 321.796 129.425C321.967 129.601 322.116 129.786 322.333 130.057C322.437 130.187 322.556 130.336 322.702 130.513C323.104 131.003 323.616 131.59 324.293 132.164C325.22 132.948 326.3 133.267 327.189 133.424C327.976 133.562 328.774 133.592 329.569 133.646C329.824 133.664 330.029 133.682 330.198 133.705C330.311 140.451 330.521 146.464 333.916 152.519C335.812 155.9 338.772 159.255 343.165 160.51C345.14 161.074 346.152 161.881 346.721 162.641C347.308 163.425 347.584 164.37 347.717 165.491C347.858 166.675 347.815 167.873 347.956 169.056Z" fill="#FFFCFC"/>
<path class="m" id="Redbridge" d="M306.013 65.5619C305.506 66.0136 304.961 66.4731 304.402 66.9308C303.579 67.6055 302.767 68.2471 301.971 68.8758C300.971 69.6653 299.996 70.4353 299.058 71.2249C298.264 71.8937 297.592 72.4996 297.083 73.0297C299.185 73.1745 300.885 73.6626 302.123 74.6126C303.52 75.6851 304.06 77.1362 304.138 78.5349C304.211 79.8445 303.886 81.1492 303.562 82.1888C302.402 85.9158 301.73 89.554 301.394 93.5069C301.24 95.3185 301.151 97.0678 301.164 98.4739C301.17 99.1788 301.201 99.7629 301.255 100.208C301.298 100.569 301.346 100.742 301.359 100.792C301.365 100.812 301.365 100.812 301.358 100.798C301.997 102.076 303.131 105.153 303.95 108.98C304.773 112.822 305.317 117.596 304.643 122.225C304.171 125.469 304.415 127.545 304.794 128.772C305.022 129.508 305.273 129.878 305.412 130.044C306.842 130.189 308.727 130.286 310.28 130.175C310.958 130.126 311.479 130.044 311.839 129.949C311.76 129.101 311.58 128.251 311.664 127.398C311.737 126.656 312.062 125.635 313.134 125.027C314.009 124.53 315.024 124.539 315.857 124.634C317.686 124.843 318.572 125.373 319.033 125.577C319.326 125.706 319.724 125.536 320.008 125.454C320.915 125.19 321.825 125.125 322.714 125.392C323.591 125.656 324.217 126.175 324.669 126.641C324.979 126.962 325.303 127.366 325.569 127.697C325.65 127.798 325.726 127.893 325.794 127.976C326.132 128.388 326.467 128.763 326.877 129.11C327.038 129.246 327.328 129.387 327.882 129.484C328.331 129.563 328.779 129.59 329.323 129.623C329.486 129.633 329.658 129.643 329.841 129.656C330.482 129.699 331.494 129.774 332.349 130.195C332.832 130.432 333.332 130.807 333.697 131.392C334.06 131.975 334.194 132.616 334.194 133.23C334.194 134.741 334.379 138.035 334.54 140.559C335.489 140.313 336.313 139.88 337.22 139.327C337.468 139.175 337.729 139.009 338.005 138.834C339.319 137.999 340.955 136.96 343.103 136.269C343.825 136.037 344.757 135.862 345.663 136.194C346.712 136.578 347.215 137.429 347.401 138.171C349.38 136.791 351.616 135.72 353.748 134.858C355.892 133.992 358.103 133.276 359.92 132.688C360.694 132.437 361.397 132.21 361.992 132.003C362.473 131.837 362.726 131.693 362.849 131.609C362.845 131.595 362.841 131.58 362.836 131.564C362.727 131.213 362.485 130.756 362.067 130.023L361.976 129.863C361.612 129.227 361.159 128.434 360.803 127.59C360.162 126.067 360.551 124.562 361.019 123.47C361.492 122.366 362.222 121.284 362.798 120.431L362.799 120.428C363.417 119.513 363.84 118.879 364.057 118.385C363.599 117.91 363.177 117.344 362.941 116.652C362.613 115.693 362.736 114.783 363.048 113.986C363.333 113.256 363.805 112.546 364.3 111.871C364.688 111.34 365.166 110.733 365.694 110.061C365.85 109.862 366.011 109.658 366.175 109.448C367.03 108.356 367.11 106.536 366.436 104.041C365.932 102.173 365.143 100.387 364.477 98.8821C364.281 98.4384 364.096 98.0187 363.931 97.6286C363.141 95.7513 364.373 94.1831 365.169 93.4074C366.091 92.5088 367.392 91.6893 368.717 90.9813C370.974 89.7751 373.694 88.6876 375.844 87.9358C376.316 84.111 375.43 80.0918 373.973 76.4542C372.377 72.4721 370.356 68.9693 368.862 67.171L367.703 67.1061L361.453 73.8561L356.369 74.4391L351.369 77.3561L349.036 78.0231L347.036 75.5231L345.036 77.7731L346.369 82.4401L341.703 85.2731L336.953 83.1901L333.036 85.1071L328.953 85.0241L324.703 83.1071L320.369 79.1071L316.369 77.7741C316.369 77.7741 313.703 75.7741 311.036 71.7741C309.461 69.4108 307.42 67.0765 306.013 65.5619Z" fill="#FFFCFC"/>
<path class="m" id="Barking" d="M362.574 167.098C358.132 169.874 353.746 169.576 352.026 169.117C351.998 169.02 351.96 168.853 351.928 168.583C351.787 167.4 351.83 166.202 351.689 165.018C351.514 163.546 351.1 161.816 349.923 160.243C348.727 158.647 346.899 157.417 344.264 156.664C341.283 155.812 339.03 153.46 337.405 150.563C336.264 148.528 335.506 146.349 335.063 144.543C336.757 144.187 338.092 143.481 339.304 142.741C339.642 142.534 339.963 142.332 340.276 142.134C341.245 141.522 342.134 140.96 343.204 140.499C343.112 140.818 342.988 141.227 342.91 141.541C342.864 141.723 342.812 141.953 342.784 142.189C342.764 142.351 342.707 142.844 342.901 143.375C343.016 143.688 343.252 144.105 343.712 144.414C344.179 144.729 344.671 144.793 345.038 144.77C345.65 144.731 346.111 144.44 346.283 144.329C346.725 144.042 347.226 143.582 347.763 143.045C349.617 141.191 352.324 139.748 355.247 138.567C357.258 137.754 359.207 137.124 360.968 136.554C361.79 136.288 362.573 136.035 363.301 135.783C364.533 135.357 365.674 134.725 366.337 133.657C367.062 132.489 366.935 131.277 366.656 130.378C366.394 129.536 365.915 128.696 365.542 128.041L365.472 127.92C365.086 127.242 364.747 126.65 364.49 126.038C364.473 125.998 364.393 125.753 364.696 125.045C364.994 124.349 365.498 123.58 366.116 122.665L366.223 122.506C366.755 121.719 367.409 120.751 367.783 119.845C367.989 119.344 368.189 118.688 368.151 117.963C368.108 117.159 367.777 116.389 367.126 115.792C366.938 115.62 366.834 115.501 366.779 115.429C366.867 115.21 367.075 114.852 367.527 114.234C367.871 113.764 368.29 113.232 368.805 112.576C368.969 112.368 369.142 112.148 369.325 111.914C371.434 109.22 371.024 105.689 370.298 102.999C369.704 100.797 368.735 98.6104 368.064 97.0967C367.962 96.8677 367.868 96.6541 367.782 96.4582C367.809 96.4274 367.841 96.3927 367.879 96.3541C367.904 96.3286 367.931 96.3015 367.96 96.2725C368.476 95.7704 369.381 95.1619 370.603 94.509C371.929 93.8002 373.468 93.122 374.941 92.5399C374.239 95.7585 373.364 98.9724 372.91 102.236C372.443 105.592 372.68 108.45 375.029 110.91C375.514 111.418 375.778 112.055 375.963 113.042C376.196 114.29 376.264 115.562 376.509 116.809C376.804 118.306 377.341 119.956 378.553 121.582C379.759 123.199 381.54 124.669 384.141 125.969C386.875 127.336 389.282 127.596 391.395 127.057C393.456 126.532 394.974 125.311 396.073 124.223C396.6 123.702 397.09 123.145 397.585 122.593C397.741 123.309 397.614 124.099 397.421 125.303C397.251 126.364 397.123 127.435 397.278 128.508C397.457 129.743 397.983 130.953 399.027 132.107C399.222 132.322 399.257 132.448 399.267 132.493C399.277 132.542 399.289 132.648 399.225 132.865C399.069 133.396 398.625 134.103 397.799 135.204C396.322 137.174 393.79 140.122 393.109 143.911C392.898 145.087 392.324 146.17 391.441 147.31C390.53 148.487 389.429 149.563 388.181 150.865C385.807 153.343 383.036 156.49 383.036 161.221C383.036 164.935 382.643 167.531 382.34 169.449L382.306 169.661L382.306 169.665C382.218 170.218 382.132 170.76 382.071 171.265C380.769 170.997 379.328 170.69 377.981 170.383C376.819 170.118 375.745 169.858 374.899 169.627C374.475 169.511 374.126 169.408 373.86 169.319C372.846 168.981 371.979 167.024 371.223 166.435C370.276 165.696 369.042 165.193 367.483 165.279C365.998 165.361 364.381 165.969 362.574 167.098Z" fill="#FFFCFC"/>
<path class="m" id="Havering" d="M373.737 67.4716C375.085 69.4976 376.529 72.079 377.686 74.9668C379.441 79.3484 380.615 84.6332 379.59 89.8313C378.747 94.107 377.473 98.4621 376.872 102.787C376.474 105.646 376.813 106.986 377.922 108.148C379.165 109.45 379.642 110.953 379.895 112.307C380.125 113.543 380.191 114.803 380.434 116.036C380.653 117.152 381.012 118.187 381.76 119.191C382.514 120.202 383.757 121.305 385.93 122.391C387.97 123.412 389.391 123.44 390.406 123.181C391.473 122.909 392.383 122.248 393.26 121.38C394.126 120.523 394.859 119.502 395.802 118.725C396.224 118.377 397.066 117.774 398.186 117.879C399.394 117.991 400.136 118.832 400.552 119.485C402.059 121.854 401.669 124.164 401.411 125.695C401.287 126.43 401.13 127.19 401.237 127.935C401.3 128.371 401.474 128.849 401.994 129.424C402.581 130.073 402.999 130.817 403.178 131.657C403.357 132.492 403.271 133.286 403.062 133.995C402.673 135.317 401.779 136.565 400.999 137.604C399.267 139.914 397.519 141.987 397.046 144.618C396.681 146.653 395.706 148.334 394.597 149.766C393.519 151.159 392.185 152.468 391.069 153.633C388.71 156.094 387.036 158.215 387.036 161.221C387.036 165.245 386.606 168.081 386.291 170.073L386.274 170.181C386.183 170.754 386.111 171.213 386.061 171.597C388.998 171.685 393.081 172.925 395.653 177.334C397.494 180.489 397.821 184.246 398.074 187.15C398.096 187.405 398.118 187.653 398.14 187.893C398.286 189.491 398.438 190.733 398.746 191.688C399.039 192.596 399.392 192.989 399.787 193.195C401.451 194.06 403.679 194.446 405.976 194.39C408.271 194.333 410.411 193.841 411.833 193.164C413.403 192.416 415.496 191.461 417.358 190.622L417.703 185.107C417.703 185.107 425.869 183.024 427.869 180.357C429.869 177.69 431.203 176.523 431.203 176.523L421.036 177.107C421.036 177.107 425.036 173.273 429.036 173.273C433.036 173.273 433.453 171.19 433.453 171.19L430.786 162.44L433.286 161.523L433.036 158.44L436.369 153.107C436.369 153.107 439.036 159.774 441.036 163.107C443.036 166.44 444.369 161.773 444.369 161.773L446.119 159.357L445.703 149.773L462.369 145.773L465.036 143.773L486.036 140.107L478.369 129.94L474.369 125.107C474.369 125.107 471.037 112.44 469.703 109.107C468.369 105.774 466.369 103.107 466.369 103.107L460.786 103.024L456.369 98.4411L453.953 99.9411L445.036 97.1081L451.036 90.4411C451.036 90.4411 444.12 86.1081 441.453 86.1081C438.786 86.1081 437.536 84.4401 437.536 84.4401L439.036 82.4401L437.036 75.7731L436.369 72.4401L434.369 69.5231L429.786 69.1061L426.369 64.4391L429.036 58.4391L421.703 54.4391C421.703 54.4391 420.869 58.4391 416.869 60.4391C412.869 62.4391 407.703 64.4391 407.703 64.4391C407.703 64.4391 399.369 63.7721 395.869 64.6891C392.395 65.5991 389.703 68.4391 389.703 68.4391L373.737 67.4716Z" fill="#FFFCFC"/>
<path class="m" id="Bexley" d="M417.076 195.141C415.816 195.715 414.569 196.291 413.553 196.775C411.517 197.744 408.801 198.322 406.075 198.389C403.351 198.456 400.393 198.019 397.942 196.744C396.279 195.879 395.418 194.4 394.939 192.916C394.475 191.479 394.298 189.809 394.156 188.258C394.138 188.058 394.12 187.859 394.102 187.661C393.825 184.574 393.565 181.694 392.198 179.35C390.562 176.546 387.389 175.108 384.229 175.773C381.844 175.311 379.462 174.823 377.093 174.283C375.907 174.013 374.77 173.738 373.845 173.486C373.018 173.26 372.101 172.987 371.553 172.682C371.027 172.39 370.658 171.974 370.431 171.694C369.878 171.009 369.464 170.135 368.763 169.589C368.496 169.381 368.197 169.246 367.703 169.273C367.253 169.298 366.559 169.465 365.549 169.996C365.26 174.061 365.036 179.922 365.222 185.444C365.323 188.453 365.545 191.318 365.933 193.718C366.332 196.187 366.87 197.911 367.458 198.829L367.606 199.059L367.686 199.32C367.976 200.263 367.674 201.16 367.168 201.796C366.691 202.395 366.013 202.816 365.28 203.123C363.861 203.718 361.676 204.118 358.414 204.205C355.617 205.236 351.605 206.974 348.295 208.958C346.571 209.99 345.127 211.037 344.146 212.026C343.102 213.079 342.907 213.735 342.915 214.007C342.945 215.009 343.338 216.302 344.041 217.932C344.49 218.971 344.998 220.005 345.535 221.098C345.845 221.73 346.165 222.383 346.489 223.067C347.332 224.846 348.161 226.768 348.585 228.651C349.012 230.54 349.08 232.607 348.148 234.529C346.336 238.267 343.676 243.467 342.083 246.546C344.027 248.322 346.553 250.671 348.863 252.904C350.259 254.254 351.589 255.574 352.667 256.705C353.703 257.791 354.627 258.828 355.107 259.568C355.292 259.855 355.708 260.237 356.471 260.612C357.214 260.977 358.16 261.274 359.217 261.465C361.372 261.855 363.639 261.75 365.118 261.235C367.403 260.44 370.301 260.332 372.949 260.736C375.569 261.135 378.332 262.096 380.151 263.808C381.425 265.007 384.38 267.214 387.218 269.249L388.119 267.273L382.369 263.107L384.369 246.44L390.369 245.773C390.369 245.773 390.203 244.774 390.869 241.44C391.535 238.106 395.703 232.44 395.703 232.44L401.453 232.107L406.203 225.273L409.953 224.94L413.703 217.107L419.036 213.773L417.869 209.273L415.786 207.523L422.369 196.44L417.036 195.773L417.076 195.141Z" fill="#FFFCFC"/>
<path class="m" id="Greenwich" d="M294.499 181.175C295.103 181.369 295.712 181.644 296.239 181.929C297.039 182.723 298.797 184.443 300.858 186.384C302.016 187.473 303.644 187.929 305.135 188.135C306.685 188.35 308.433 188.337 310.145 188.219C314.595 187.913 318.64 186.413 323.05 187.223C323.433 187.294 323.838 187.372 324.26 187.453C325.652 187.722 327.224 188.025 328.743 188.191C330.725 188.408 332.919 188.434 334.894 187.74C336.984 187.005 338.699 185.506 339.656 183.008C340.649 180.416 342.783 178.158 345.233 176.357C347.386 174.773 349.64 173.649 351.208 173.035C353.408 173.568 357.251 173.75 361.407 172.139C361.193 176.043 361.067 180.916 361.224 185.579C361.328 188.678 361.559 191.727 361.984 194.356C362.292 196.258 362.721 198.083 363.355 199.572C362.457 199.862 360.811 200.158 357.998 200.213L357.667 200.22L357.357 200.332C354.398 201.403 349.959 203.297 346.239 205.527C344.386 206.637 342.622 207.882 341.305 209.21C340.051 210.474 338.859 212.157 338.917 214.125C338.97 215.922 339.626 217.797 340.369 219.517C340.852 220.636 341.441 221.838 342.011 222.998C342.31 223.61 342.605 224.209 342.874 224.779C343.698 226.519 344.362 228.105 344.683 229.53C345.003 230.949 344.934 231.99 344.549 232.784C342.457 237.098 339.203 243.423 337.83 246.058C337.211 247.217 336.142 248.971 334.972 250.441C334.384 251.18 333.814 251.792 333.303 252.216C333.05 252.426 332.84 252.566 332.678 252.651C332.595 252.695 332.537 252.718 332.501 252.729C332.467 252.741 332.455 252.742 332.464 252.741C332.243 252.765 331.748 252.702 330.696 251.155C330.268 250.525 329.847 249.801 329.365 248.975L329.365 248.974L329.204 248.697C328.672 247.785 328.075 246.776 327.398 245.828C326.653 244.785 325.449 243.575 324.174 242.382C323.088 241.366 321.856 240.278 320.651 239.212L320.635 239.199C320.401 238.991 320.167 238.785 319.935 238.579C318.491 237.3 317.135 236.083 316.073 235.02C315.542 234.49 315.111 234.024 314.79 233.629C314.449 233.21 314.318 232.973 314.285 232.895L313.5 230.988L308.665 233.155C308.494 232.427 308.408 231.444 308.626 230.263C309.048 227.979 308.699 225.966 307.426 224.409C306.216 222.928 304.427 222.185 302.662 221.794C302.337 221.723 302.117 221.646 301.971 221.582C302.375 219.297 302.47 217.156 302.303 215.301C302.136 213.457 301.696 211.75 300.907 210.474C300.208 209.347 298.914 208.828 298.009 208.553C296.975 208.239 295.767 208.052 294.59 207.943C292.236 207.725 289.661 207.79 288.115 207.982C286.429 208.192 284.985 208.904 283.917 209.644C283.801 209.304 283.708 208.847 283.646 208.23C283.579 207.559 283.563 206.853 283.545 206.072L283.536 205.715C283.515 204.845 283.482 203.851 283.322 202.946C283.182 202.153 282.795 201.483 282.408 200.966C282.012 200.436 281.528 199.951 281.042 199.521C280.312 198.876 279.47 198.263 278.693 197.726C278.775 197.678 278.855 197.628 278.932 197.578C279.068 197.697 279.208 197.817 279.35 197.935C279.993 198.468 280.767 199.021 281.739 199.385C283.787 200.151 286.117 199.872 289.17 198.524C290.769 197.818 292.043 196.939 292.892 195.736C293.763 194.5 294.031 193.145 294.025 191.802C294.019 190.513 293.759 189.11 293.472 187.701C293.411 187.403 293.348 187.1 293.284 186.793L293.284 186.792C293.034 185.592 292.767 184.313 292.541 182.87C292.338 181.575 292.537 181.094 292.594 180.997C292.609 180.972 292.613 180.972 292.613 180.972C292.627 180.964 292.696 180.929 292.86 180.912C293.221 180.874 293.783 180.944 294.499 181.175Z" fill="#FFFCFC"/>
<path class="m" id="Lewisham" d="M304.693 229.537C304.106 232.714 304.94 235.253 305.784 236.597C306.046 237.786 306.545 239.436 307.311 241.074C308.156 242.882 309.44 244.925 311.309 246.199C312.268 246.854 313.017 247.289 313.601 247.613C313.734 247.686 313.849 247.75 313.951 247.805L314.096 247.884C314.393 248.047 314.549 248.132 314.686 248.227C314.712 248.244 314.728 248.257 314.738 248.265L314.739 248.266C314.784 248.353 314.875 248.583 315.022 249.234L315.07 249.448C315.127 249.698 315.175 249.911 315.216 250.104L315.222 250.133C315.105 250.164 314.973 250.199 314.824 250.238C314.451 250.334 314.053 250.447 313.711 250.545C313.52 250.599 313.346 250.648 313.204 250.687C312.741 250.813 312.425 250.883 312.172 250.91C311.938 250.935 311.814 250.917 311.736 250.895C311.665 250.875 311.539 250.825 311.34 250.655C310.607 250.026 309.767 250.158 309.623 250.181L309.616 250.182C309.347 250.224 309.119 250.307 308.983 250.36C308.692 250.475 308.379 250.637 308.102 250.789C307.575 251.079 306.914 251.481 306.263 251.878C305.522 252.329 304.783 252.783 304.023 253.201C303.324 253.586 302.926 253.754 302.794 253.787C302.15 253.948 301.62 254.289 301.227 254.598C300.819 254.918 300.439 255.299 300.097 255.677C299.516 256.319 298.915 257.1 298.366 257.813L298.365 257.814C298.279 257.926 298.194 258.036 298.111 258.144C297.458 258.989 296.884 259.707 296.358 260.222C295.985 260.588 295.777 260.709 295.714 260.746C295.703 260.752 295.697 260.756 295.695 260.758C295.061 260.81 294.466 260.931 294.003 261.025L293.839 261.058C293.296 261.167 292.913 261.231 292.537 261.235C291.935 261.24 291.076 261.097 289.637 259.906C288.926 259.318 288.175 258.611 287.319 257.806L287.318 257.805L286.98 257.488C286.005 256.572 284.921 255.568 283.749 254.631C281.422 252.771 278.556 251.014 275.12 250.702C271.764 250.397 269.807 251.219 268.184 251.994L267.965 252.099C266.63 252.739 265.747 253.163 264.081 253.039C261.105 252.819 257.225 252.057 254.836 251.527C254.842 251.423 254.858 251.311 254.886 251.185C255.028 250.531 255.565 249.289 257.532 247.362C260.134 244.814 260.675 242.177 260.764 239.879C260.785 239.332 260.781 238.802 260.776 238.325L260.775 238.222V238.22C260.77 237.772 260.766 237.378 260.777 236.995C260.8 236.173 260.891 235.584 261.096 235.097C261.796 233.434 262.079 233.316 262.079 233.316C263.076 232.76 265.036 232.946 266.144 232.736C266.79 232.614 267.544 232.414 268.244 231.988C269.874 230.997 270.474 229.282 270.526 227.176C270.569 225.402 270.597 223.04 270.289 220.895C270.135 219.82 269.885 218.716 269.465 217.728C269.047 216.746 268.403 215.744 267.382 215.063C266.025 214.158 265.806 213.994 265.643 213.661C265.456 213.277 265.274 212.404 265.493 209.787C265.961 204.16 264.372 200.913 263.122 198.414C263.443 197.765 264.074 197.249 264.619 196.799C265.274 196.26 266 195.759 266.63 195.348C267.398 194.913 267.243 194.847 267.664 194.913C268.937 195.113 270.366 194.673 272.284 193.456C273.311 192.805 274.076 192.496 274.588 192.357C274.875 193.043 275.298 193.811 275.889 194.587C275.623 194.652 275.308 194.695 274.939 194.695C274.687 194.695 274.334 194.71 273.975 194.812C273.683 194.895 272.832 195.194 272.473 196.16C272.12 197.111 272.553 197.883 272.7 198.117C272.888 198.415 273.119 198.643 273.272 198.784C273.761 199.234 274.602 199.795 275.367 200.306C275.432 200.349 275.496 200.392 275.56 200.435C275.618 200.473 275.674 200.511 275.73 200.549C276.688 201.192 277.647 201.859 278.392 202.518C278.762 202.845 279.031 203.128 279.206 203.362C279.338 203.54 279.377 203.635 279.385 203.654L279.386 203.657C279.484 204.222 279.516 204.925 279.538 205.813C279.54 205.922 279.543 206.035 279.545 206.149C279.563 206.916 279.582 207.791 279.666 208.628C279.848 210.452 280.412 213.02 282.928 214.203L284.3 214.849L285.292 213.702C285.686 213.246 287.027 212.149 288.609 211.952C289.847 211.798 292.131 211.732 294.221 211.926C295.266 212.023 296.177 212.177 296.847 212.381C297.296 212.517 297.491 212.632 297.552 212.668L297.56 212.673C297.879 213.237 298.19 214.229 298.319 215.661C298.448 217.089 298.385 218.827 298.054 220.758C297.767 221.548 297.744 222.594 298.352 223.587C299.034 224.701 300.274 225.363 301.797 225.7C303.162 226.002 303.934 226.458 304.33 226.941C304.663 227.349 304.964 228.066 304.693 229.537Z" fill="#FFFCFC"/>
<path class="m" id="Bromley" d="M387.301 274.213C383.888 271.818 379.26 268.462 377.409 266.721C376.429 265.798 374.583 265.031 372.346 264.69C370.138 264.353 367.933 264.491 366.432 265.013C364.124 265.816 361.123 265.875 358.504 265.401C357.174 265.16 355.856 264.767 354.706 264.201C353.575 263.645 352.469 262.854 351.749 261.741C351.504 261.363 350.838 260.584 349.771 259.465C348.747 258.389 347.461 257.112 346.082 255.779C344.069 253.833 341.884 251.793 340.077 250.133C339.497 251.048 338.822 252.027 338.102 252.932C337.422 253.786 336.659 254.629 335.857 255.294C335.1 255.923 334.082 256.585 332.906 256.716C330.164 257.021 328.436 254.944 327.389 253.404C326.876 252.65 326.381 251.799 325.914 250.996L325.748 250.712C325.215 249.798 324.701 248.934 324.143 248.153C323.654 247.468 322.717 246.497 321.441 245.303C320.401 244.33 319.22 243.286 318.014 242.22C317.771 242.006 317.527 241.79 317.283 241.574C315.847 240.301 314.404 239.008 313.244 237.849C312.672 237.276 312.142 236.711 311.705 236.176L310.006 236.937C310.231 237.682 310.539 238.534 310.934 239.38C311.66 240.932 312.565 242.214 313.563 242.895C314.395 243.462 315.034 243.833 315.541 244.115C315.635 244.167 315.735 244.221 315.837 244.277L315.841 244.279C316.218 244.484 316.632 244.71 316.955 244.932C317.479 245.293 317.935 245.744 318.285 246.415C318.587 246.994 318.767 247.661 318.924 248.353L318.973 248.57C319.097 249.116 319.217 249.647 319.28 250.085C319.347 250.549 319.423 251.318 319.078 252.084C318.688 252.952 317.973 253.376 317.453 253.602C316.97 253.812 316.375 253.968 315.828 254.11C315.478 254.2 315.191 254.282 314.896 254.366C314.694 254.424 314.489 254.482 314.257 254.546C313.751 254.683 313.183 254.824 312.6 254.887C311.659 254.988 310.723 254.878 309.811 254.417C309.398 254.652 308.888 254.963 308.308 255.316C307.529 255.79 306.751 256.265 305.952 256.705C305.303 257.063 304.514 257.467 303.829 257.651C303.807 257.664 303.763 257.692 303.697 257.744C303.536 257.87 303.326 258.069 303.063 258.361C302.598 258.875 302.107 259.512 301.547 260.239C301.458 260.354 301.368 260.471 301.276 260.59C300.64 261.413 299.909 262.342 299.159 263.078C298.489 263.735 297.416 264.641 296.06 264.742C295.666 264.771 295.293 264.846 294.778 264.949L294.625 264.98C294.072 265.091 293.362 265.227 292.574 265.234C290.85 265.25 289.103 264.657 287.087 262.988C286.271 262.313 285.419 261.511 284.579 260.72L284.578 260.719L284.558 260.701C284.453 260.602 284.347 260.503 284.242 260.404C283.271 259.492 282.287 258.584 281.251 257.755C279.16 256.083 277.042 254.893 274.758 254.685C272.395 254.471 271.189 254.992 269.908 255.603C269.82 255.645 269.732 255.688 269.641 255.732C268.249 256.403 266.532 257.232 263.785 257.028C259.871 256.738 254.731 255.627 252.663 255.132L252.513 255.096L252.37 255.038C250.392 254.227 249.674 254.447 249.534 254.519C249.486 254.544 249.159 254.738 249.037 255.929C248.925 257.037 249.105 259.027 249.607 260.863C249.854 261.767 250.153 262.534 250.47 263.085C250.746 263.567 250.938 263.715 250.975 263.744C250.98 263.747 250.982 263.749 250.982 263.749C250.982 263.749 250.98 263.749 250.978 263.748C252.164 264.217 253.017 265.065 253.677 265.928C254.326 266.777 254.906 267.806 255.459 268.784L255.481 268.824C256.619 270.839 257.86 273.038 259.96 275.1C262.089 277.189 263.233 278.793 263.967 279.821C264.088 279.991 264.198 280.145 264.299 280.283C264.518 280.582 264.643 280.725 264.704 280.79C264.737 280.789 264.781 280.786 264.839 280.779C266.453 280.6 267.536 281.592 268.12 282.347C268.703 283.101 269.147 284.061 269.483 284.805C269.544 284.941 269.602 285.071 269.658 285.197C269.952 285.852 270.183 286.369 270.433 286.787C270.521 286.935 270.59 287.031 270.636 287.09C270.848 287.12 271.081 287.13 271.434 287.145L271.435 287.145L271.514 287.148C272.006 287.17 272.675 287.205 273.44 287.413C275.023 287.845 276.632 288.902 278.667 291.122C279.578 292.116 280.182 292.694 280.608 293.102L280.698 293.188C281.046 293.519 281.495 293.945 281.802 294.486C282.157 295.111 282.272 295.776 282.368 296.335L282.369 296.339C282.393 296.477 282.418 296.625 282.444 296.786C282.541 297.365 282.666 298.113 282.881 299.188C283.059 300.08 283.219 301.019 283.386 301.994C283.786 304.339 284.223 306.893 285.029 309.497C286.148 313.11 287.878 316.398 290.86 318.597C294.271 321.113 297.321 323.53 298.868 326.792C300.492 330.217 300.309 334.165 298.396 339.358L297.995 339.21L299.703 341.773L301.786 353.107L305.703 353.773L301.703 359.107L309.036 379.107L312.369 369.107C312.369 369.107 313.702 363.107 316.369 362.44C319.036 361.773 323.036 367.107 323.036 367.107L323.536 369.69L327.703 369.94L330.953 377.773C330.953 377.773 345.037 375.106 347.703 373.773C350.369 372.44 351.036 369.107 351.036 369.107L348.369 367.107L347.619 362.44L347.703 358.19L347.536 352.607L353.036 348.44L356.536 343.44L369.036 338.44L365.953 328.607C365.953 328.607 366.453 324.94 369.119 324.94C371.785 324.94 376.369 325.107 376.369 325.107L383.953 311.69L384.869 306.44L387.036 301.773C387.036 301.773 384.12 292.356 385.453 289.69C386.786 287.024 390.369 284.44 390.369 284.44L387.301 274.213Z" fill="#FFFCFC"/>
<path class="m" id="Croydon" d="M294.722 338.005L294.643 337.975C296.369 333.289 296.23 330.564 295.254 328.506C294.201 326.287 292.008 324.414 288.486 321.816C284.534 318.902 282.451 314.694 281.208 310.68C280.319 307.808 279.807 304.813 279.393 302.394L279.393 302.393L279.392 302.39C279.239 301.493 279.099 300.675 278.958 299.972C278.729 298.827 278.591 298.001 278.495 297.421C278.47 297.27 278.448 297.136 278.427 297.018C278.368 296.673 278.331 296.517 278.315 296.458C278.276 296.416 278.158 296.294 277.843 295.992C277.389 295.557 276.714 294.911 275.718 293.825C273.94 291.885 272.949 291.425 272.387 291.272C272.08 291.188 271.79 291.164 271.342 291.145L271.217 291.139C270.803 291.123 270.209 291.099 269.575 290.961C268.185 290.659 267.395 289.501 266.999 288.838C266.616 288.197 266.269 287.419 265.982 286.774C265.931 286.661 265.883 286.552 265.836 286.449C265.478 285.655 265.208 285.12 264.956 284.795L264.946 284.782C264.189 284.823 263.418 284.706 262.679 284.258C261.947 283.815 261.44 283.149 261.075 282.65C260.957 282.49 260.835 282.32 260.707 282.14C259.983 281.127 259.026 279.787 257.159 277.954C254.652 275.494 253.176 272.878 252.054 270.89L251.975 270.75C251.39 269.713 250.947 268.943 250.499 268.357C250.063 267.786 249.748 267.563 249.506 267.468C248.305 266.995 247.512 265.968 247 265.077C246.459 264.133 246.049 263.017 245.749 261.918C245.314 260.329 245.052 258.564 245.011 257.056C239.839 255.267 235.058 257.559 232.738 258.671L232.633 258.722C232.591 258.765 232.533 258.826 232.458 258.911C232.231 259.168 231.934 259.538 231.578 260.007C230.867 260.94 230.006 262.153 229.136 263.39C228.978 263.613 228.821 263.837 228.664 264.06L228.653 264.076C227.957 265.067 227.275 266.036 226.71 266.81C226.363 267.285 226.038 267.716 225.766 268.047C225.632 268.21 225.486 268.379 225.341 268.526C225.313 268.555 225.281 268.586 225.246 268.619C224.386 270.168 223.296 274.706 227.979 280.19L229.542 282.021L222.135 286.288C223.919 288.228 225.725 291.235 225.725 295.056C225.725 296.164 226.118 297.715 226.841 299.896C227.088 300.642 227.376 301.47 227.685 302.357C228.22 303.892 228.817 305.603 229.363 307.364C231.129 313.053 232.669 320.105 231.503 328.12L231.432 328.605L231.145 329.003C230.355 330.096 228.831 330.737 227.035 330.913C225.147 331.097 222.64 330.816 219.405 329.727C218.055 329.273 217.296 329.274 216.931 329.35C216.657 329.406 216.594 329.497 216.54 329.593C216.441 329.767 216.345 330.113 216.353 330.661C216.361 331.188 216.465 331.757 216.611 332.243L217.12 333.929L215.512 334.647C215.431 334.684 215.091 334.906 214.894 335.442C214.714 335.935 214.583 336.906 215.261 338.543L215.645 339.468L215.133 340.329C214.444 341.49 213.473 344.643 215.14 347.495L215.463 348.047L215.405 348.685C215.249 350.401 213.712 351.528 212.146 351.976C210.629 352.41 208.665 352.396 206.247 351.747L205.703 353.107L207.036 357.107L207.703 360.44L209.036 363.107L207.703 368.44L213.703 371.107L219.286 370.523L227.203 382.69L231.87 382.857L231.037 379.107L232.954 377.19C232.954 377.19 235.511 377.229 238.787 374.523C240.704 372.94 241.87 371.273 241.87 371.273L245.786 369.94L247.703 363.107L251.036 361.107C251.036 361.107 249.535 355.94 252.869 352.607C256.203 349.274 260.369 351.773 260.369 351.773L265.036 351.107L268.036 348.69L270.536 344.607L267.619 340.523L269.953 338.273L273.036 338.44L274.369 334.44L284.369 333.773L289.036 341.107L290.369 338.44L294.722 338.005Z" fill="#FFFCFC"/>
<path class="m" id="Sutton" d="M206.199 348.816L206.564 347.672C208.879 348.41 210.29 348.335 211.008 348.14C209.576 344.632 210.353 341.177 211.236 339.185C210.589 337.207 210.619 335.487 211.138 334.068C211.452 333.209 211.927 332.514 212.462 331.984C212.399 331.576 212.36 331.151 212.353 330.72C212.339 329.776 212.483 328.646 213.053 327.632C213.668 326.538 214.702 325.725 216.122 325.432C217.45 325.158 218.98 325.364 220.681 325.936C223.548 326.9 225.472 327.046 226.645 326.932C227.127 326.885 227.449 326.799 227.654 326.725C228.484 319.887 227.164 313.773 225.543 308.55C225.008 306.827 224.468 305.279 223.954 303.807C223.638 302.901 223.332 302.024 223.043 301.154C222.333 299.01 221.725 296.891 221.725 295.056C221.725 291.862 219.761 289.377 218.338 288.163C217.938 288.324 217.513 288.544 217.152 288.817C216.528 289.287 216.357 289.694 216.371 290.06C216.397 290.707 216.297 291.455 215.866 292.126C215.406 292.843 214.724 293.234 214.055 293.393C212.904 293.668 211.699 293.294 210.891 292.969C209.225 292.297 207.369 291.028 206.386 290.021H206.373C206.121 290.022 205.865 290.059 205.441 290.122C205.235 290.152 204.989 290.189 204.685 290.229C202.988 290.456 200.621 290.594 197.753 289.185C197.054 288.842 196.646 288.887 196.239 289.034C195.679 289.236 195.119 289.632 194.16 290.31L193.96 290.452C191.879 291.922 188.977 293.807 184.121 293.182C182.031 292.912 180.609 292.647 179.616 292.463L179.589 292.457C179.082 292.363 178.743 292.301 178.476 292.264C178.375 292.25 178.301 292.242 178.247 292.238C178.24 292.244 178.232 292.251 178.224 292.258C178.203 292.277 178.179 292.299 178.152 292.325C178 292.468 177.825 292.649 177.561 292.922L177.447 293.04C177.132 293.365 176.741 293.766 176.247 294.244C175.383 295.079 174.791 295.776 174.336 296.341C174.263 296.431 174.186 296.529 174.105 296.631C173.766 297.059 173.369 297.561 172.999 297.896C172.72 298.148 172.33 298.434 171.812 298.6C171.27 298.773 170.744 298.765 170.273 298.665C169.48 298.498 168.69 298.024 167.996 297.587C166.455 296.619 165.104 295.589 164.12 294.771L156.247 301.401L155.871 310.357L161.704 309.773L167.037 314.44L173.037 329.773C173.037 329.773 166.37 335.106 166.37 337.773C166.37 340.44 169.953 343.607 169.953 343.607C169.953 343.607 170.12 343.607 172.703 343.773C174.286 343.876 175.703 344.44 175.703 344.44L176.37 338.44L184.37 331.773C184.37 331.773 190.37 332.439 193.703 335.773C197.036 339.107 199.036 343.773 199.036 343.773L202.369 344.44L206.199 348.816Z" fill="#FFFCFC"/>
<path class="m" id="Merton" d="M211.272 263.323C211.526 262.959 211.808 262.601 212.085 262.268C208.965 260.928 207.197 260.525 205.939 260.445C205.178 260.397 204.537 260.462 203.776 260.575C203.63 260.597 203.477 260.621 203.315 260.646L203.305 260.648C202.642 260.752 201.845 260.877 200.935 260.94C198.633 261.1 196.429 260.069 194.782 258.999C193.088 257.898 191.667 256.549 190.844 255.606L190.544 255.262L190.423 254.821C189.308 250.759 187.063 250.047 186.795 250.019L184.75 249.798L185.027 247.76C185.165 246.75 184.914 245.774 184.476 244.912C184.275 244.515 184.045 244.166 183.824 243.877C176.423 245.957 168.95 244.202 166.76 243.688C166.658 243.664 166.567 243.643 166.488 243.625C166.447 243.636 166.4 243.651 166.345 243.668C166.011 243.774 165.539 243.949 164.94 244.192C163.748 244.673 162.179 245.367 160.456 246.159C157.378 247.574 153.878 249.27 151.311 250.54C151.182 251.274 151.034 252.38 150.978 253.687C150.979 253.701 150.986 253.853 151.096 254.194C151.206 254.534 151.383 254.958 151.626 255.465C152.071 256.391 152.661 257.437 153.302 258.574L153.509 258.94C154.206 260.178 154.95 261.516 155.494 262.745C155.994 263.874 156.522 265.321 156.366 266.646C156.301 267.196 156.339 267.467 156.376 267.629C156.416 267.8 156.462 267.913 156.566 268.171C156.604 268.266 156.65 268.379 156.707 268.522C157.143 269.628 157.512 270.996 157.353 273.766C157.221 276.067 157.476 279.288 158.208 282.037C158.574 283.411 159.034 284.573 159.56 285.421C160.097 286.287 160.579 286.633 160.916 286.743C163.884 287.71 165.525 289.463 166.004 291.118C166.81 291.835 168.317 293.065 170.125 294.201C170.35 294.342 170.527 294.448 170.665 294.527L170.784 294.377C170.847 294.298 170.919 294.207 171.003 294.103C171.069 294.02 171.142 293.93 171.223 293.829C171.744 293.183 172.448 292.352 173.467 291.368C173.914 290.936 174.27 290.571 174.573 290.258L174.684 290.143C174.935 289.883 175.182 289.627 175.405 289.417C175.971 288.883 176.679 288.347 177.772 288.249C178.501 288.183 179.344 288.342 180.138 288.491L180.322 288.525L180.347 288.53C181.318 288.711 182.654 288.96 184.632 289.214C187.984 289.646 189.841 288.465 191.652 287.185C191.743 287.121 191.837 287.054 191.933 286.985C192.754 286.399 193.777 285.669 194.884 285.271C196.312 284.756 197.845 284.775 199.516 285.595C201.386 286.513 202.848 286.44 204.155 286.265C204.281 286.248 204.423 286.227 204.576 286.204C205.12 286.123 205.799 286.022 206.364 286.021C207.233 286.019 208.326 286.225 209.203 287.179C209.699 287.719 211.134 288.754 212.386 289.258L212.423 289.273C212.669 287.6 213.725 286.391 214.743 285.624C215.808 284.82 217.033 284.327 217.958 284.077L223.483 280.895C220.574 276.654 220.142 272.672 220.689 269.724C220.074 269.781 219.414 269.831 218.742 269.867C217.48 269.934 216.129 269.953 214.94 269.861C214.347 269.815 213.751 269.738 213.207 269.61C212.694 269.489 212.07 269.288 211.533 268.909C211.026 268.551 210.603 268.063 210.36 267.44C210.121 266.828 210.11 266.226 210.192 265.716C210.344 264.769 210.852 263.924 211.272 263.323Z" fill="#FFFCFC"/>
<path class="m" id="Kingston" d="M152.621 299.511L152.48 299.344L161.676 291.6C161.326 291.28 160.722 290.886 159.677 290.546C158.09 290.029 156.956 288.812 156.161 287.529C155.355 286.23 154.767 284.659 154.343 283.066C153.495 279.881 153.205 276.233 153.36 273.536C153.488 271.308 153.196 270.522 152.986 269.991C152.967 269.943 152.945 269.888 152.919 269.826C152.792 269.516 152.597 269.04 152.478 268.525C152.32 267.836 152.286 267.094 152.393 266.179C152.393 266.179 152.398 266.136 152.387 266.038C152.376 265.941 152.352 265.81 152.308 265.642C152.218 265.299 152.062 264.874 151.836 264.364C151.382 263.339 150.733 262.163 150.023 260.903L149.812 260.528L149.812 260.527C149.185 259.417 148.527 258.25 148.021 257.197C147.737 256.606 147.477 256.002 147.29 255.422C147.11 254.864 146.953 254.197 146.982 253.517C147.058 251.722 147.289 250.208 147.478 249.286C147.324 248.81 147.156 248.235 147.007 247.627L135.598 256.001L134.458 255.318C133.928 255.001 132.942 254.585 131.885 254.468C130.849 254.353 129.948 254.537 129.25 255.129C128.115 256.09 126.787 256.326 125.545 256.102C124.39 255.894 123.347 255.302 122.498 254.674C121.195 253.709 120.019 252.41 119.153 251.277C118.81 251.327 118.462 251.393 118.128 251.479C117.415 251.662 116.908 251.894 116.624 252.112C116.518 252.193 116.472 252.25 116.457 252.273C116.461 252.35 116.532 252.799 117.309 253.686C119.713 256.429 120.843 258.409 120.843 260.498C120.843 261.481 120.586 262.344 120.379 263.019L120.319 263.214C120.124 263.852 119.944 264.438 119.821 265.175C119.537 266.88 119.362 270.276 119.185 273.739L119.157 274.266C119.066 276.042 118.973 277.787 118.86 279.206C118.803 279.915 118.74 280.566 118.667 281.112C118.6 281.61 118.505 282.176 118.345 282.623C118.085 283.346 117.498 284.134 116.994 284.761C116.427 285.465 115.721 286.255 114.986 287.037C114.428 287.63 113.843 288.231 113.271 288.806L119.036 297.773L119.703 305.107L116.37 307.107L113.037 313.773L113.704 316.44L106.621 327.607L108.371 331.107C108.371 331.107 107.538 333.316 107.538 338.69C107.538 344.19 108.621 345.19 108.621 345.19L106.704 348.107C106.704 348.107 109.121 349.94 112.454 347.94C115.787 345.94 121.376 342.013 122.371 339.773C122.704 339.023 124.038 329.607 124.038 329.607L129.121 324.94L130.371 319.773L131.954 315.773C131.954 315.773 136.371 309.774 139.704 307.107C143.037 304.44 145.704 303.107 145.704 303.107L147.704 299.773H151.704L152.621 299.511Z" fill="#FFFCFC"/>
<path class="m" id="Richmond" d="M108.878 287.516C109.841 286.588 111.015 285.421 112.071 284.298C112.772 283.551 113.401 282.845 113.877 282.254C114.115 281.958 114.299 281.71 114.429 281.514C114.531 281.361 114.572 281.281 114.582 281.261C114.588 281.241 114.601 281.191 114.618 281.104C114.644 280.974 114.673 280.8 114.702 280.579C114.762 280.136 114.818 279.566 114.872 278.889C114.98 277.535 115.071 275.846 115.163 274.06L115.199 273.36C115.368 270.056 115.552 266.46 115.875 264.518C116.044 263.504 116.3 262.676 116.493 262.047L116.495 262.042C116.515 261.976 116.535 261.912 116.554 261.851C116.764 261.161 116.843 260.817 116.843 260.498C116.843 259.984 116.628 258.978 114.301 256.322C113.214 255.082 112.475 253.741 112.457 252.317C112.437 250.776 113.258 249.652 114.19 248.938C115.078 248.257 116.168 247.852 117.135 247.604C118.128 247.35 119.148 247.222 120.012 247.181L121.14 247.128L121.768 248.066C122.485 249.137 123.675 250.569 124.877 251.458C125.482 251.906 125.95 252.11 126.255 252.165C126.473 252.205 126.552 252.171 126.665 252.076C128.462 250.555 130.59 250.299 132.327 250.492C133.422 250.614 134.443 250.919 135.282 251.271L146.906 242.74C147.077 242.235 147.302 241.684 147.502 241.192L147.636 240.865L147.636 240.864C147.964 240.062 148.311 239.212 148.609 238.368C148.912 237.506 149.286 236.535 149.257 235.603C148.834 235.301 148.379 235.044 147.946 234.757C147.258 234.3 146.343 233.623 145.697 232.589C144.339 230.416 144.704 227.73 146.743 224.377C146.487 223.596 146.288 222.649 146.265 221.643C146.229 220.072 146.627 218.176 148.124 216.645C149.074 215.674 150.331 215.294 151.443 215.164C152.572 215.032 153.778 215.129 154.901 215.317C156.137 215.524 157.384 215.861 158.495 216.227C158.711 215.402 159.019 214.552 159.448 213.786C159.919 212.945 160.616 212.06 161.643 211.501C162.34 211.122 163.105 210.939 163.907 210.959C163.053 209.061 162.392 206.696 162.392 204.018C162.392 201.029 161.974 199.868 161.623 199.402C161.394 199.098 161.016 198.846 159.591 198.728C158.095 198.603 157.553 198.663 157.25 198.745C156.979 198.819 156.814 198.917 156.226 199.264L156.22 199.268C156.094 199.343 155.948 199.429 155.778 199.529C155.382 199.761 154.183 200.878 153.22 202.714C152.292 204.482 151.723 206.661 152.192 208.967C152.601 210.978 152.121 212.702 150.969 214C149.905 215.199 148.426 215.856 147.113 216.23C145.77 216.613 144.38 216.761 143.258 216.795C142.209 216.826 141.15 216.764 140.525 216.589C139.569 216.322 138.909 215.599 138.544 215.15C138.119 214.63 137.727 214.008 137.389 213.446C136.835 212.525 136.367 211.501 135.65 210.698C135.258 210.259 135.005 209.719 134.839 209.323C134.223 207.85 133.857 206.282 133.257 204.801C132.348 202.555 131.392 201.502 130.283 201.369C126.575 200.926 125.148 202.835 124.792 203.494C124.39 204.235 123.315 205.868 122.046 207.535C120.791 209.182 119.177 211.089 117.673 212.232C116.167 213.376 114.344 213.831 112.719 214.745C112.09 215.099 111.746 215.411 111.561 215.701C111.41 215.94 111.267 216.316 111.365 217.045C111.774 220.076 113.855 222.877 114.821 223.844L116.71 225.733L114.365 227.013C112.369 228.104 107.179 230.289 101.912 230.466C99.4197 230.549 98.1414 230.456 97.4374 230.404C96.542 230.338 95.8283 230.669 94.9694 230.997L93.8574 231.422L92.9536 230.647C92.664 230.399 90.9234 229.372 88.0609 229.546C86.1002 229.666 84.1423 229.526 82.182 229.593C81.3947 229.62 80.8691 229.692 80.5311 229.797C80.1195 229.925 79.9612 230.504 79.7638 230.854C79.2677 231.736 78.7701 232.618 78.2404 233.48C77.8413 234.13 77.4106 234.787 76.9888 235.324C76.7783 235.592 76.5406 235.867 76.283 236.108C76.054 236.322 75.6688 236.643 75.1531 236.823C74.6525 236.998 73.9237 237.242 73.284 237.453C73.2768 237.558 73.2757 237.662 73.2826 237.762C73.3247 238.37 73.4003 238.228 74.6608 238.486C76.2925 238.82 77.9645 238.932 79.5864 239.32C79.9859 239.415 80.4041 239.535 80.7947 239.695C81.167 239.847 81.6355 240.083 82.038 240.468C82.3394 240.757 82.6527 241.032 82.9544 241.32C83.2731 241.625 83.6714 242.026 83.9865 242.48C84.281 242.905 84.707 243.664 84.6164 244.623C84.5178 245.666 83.8765 246.38 83.2221 246.817C82.9599 247.19 82.8795 247.719 82.806 248.155C82.6564 249.041 82.6555 249.886 82.6555 250.012C82.6555 251.028 81.9402 251.563 81.8455 251.634L81.8399 251.638C81.6451 251.785 81.4617 251.87 81.3848 251.904C81.2091 251.983 81.0269 252.041 80.9106 252.076C80.7115 252.137 80.447 252.209 80.1817 252.281L79.9819 252.335C79.2734 252.528 78.4064 252.775 77.5633 253.108C76.6973 253.449 75.998 253.828 75.5523 254.221C75.1328 254.59 75.1106 254.805 75.1155 254.921C75.147 255.677 75.2314 256.326 75.3135 256.958L75.3386 257.151C75.4143 257.735 75.516 258.52 75.4262 259.233C75.3112 260.146 74.8744 261.068 73.8795 261.675C73.0729 262.167 72.0798 262.329 71.1204 262.398C71.0973 262.399 71.0744 262.401 71.0516 262.403C71.6381 262.895 72.1499 263.558 72.3704 264.44C73.0374 267.107 75.7034 272.44 75.7034 272.44C81.7034 274.44 81.4534 271.94 81.4534 271.94C81.4534 271.94 83.5364 269.69 86.2034 269.69C87.7952 269.69 88.7632 270.135 89.852 270.636C90.5875 270.975 91.3782 271.338 92.4534 271.607C95.1204 272.274 97.0364 275.773 97.0364 275.773L107.036 287.107L108.878 287.516Z" fill="#FFFCFC"/>
<path class="m" id="Hounslow" d="M65.1021 260.78C65.5387 260.212 66.1944 259.731 66.9385 259.365C67.9074 258.89 69.192 258.525 70.8354 258.408C71.1018 258.389 71.3013 258.364 71.4477 258.339C71.4331 258.171 71.4071 257.939 71.3653 257.615L71.3449 257.459C71.2638 256.837 71.158 256.026 71.1189 255.087C71.0473 253.369 71.9292 252.081 72.9089 251.219C73.8623 250.379 75.0571 249.797 76.0948 249.387C77.0602 249.006 78.0137 248.728 78.7268 248.531C78.757 248.208 78.8002 247.854 78.8616 247.489C78.9647 246.878 79.1315 246.163 79.416 245.492C79.5839 245.096 79.8277 244.633 80.1874 244.209C80.0557 244.083 79.9159 243.955 79.7596 243.812C79.3655 243.45 79.193 243.338 78.6574 243.21C77.8627 243.021 77.0489 242.915 76.2411 242.797C75.4725 242.685 74.6251 242.562 73.8577 242.405C73.0576 242.241 72.1056 241.996 71.3454 241.553C69.8284 240.668 69.37 239.164 69.2921 238.038C69.2004 236.712 69.599 235.514 70.055 234.298C71.2432 233.913 72.4325 233.53 73.6137 233.123C75.0188 231.638 75.8673 229.57 76.8906 227.816C77.4972 226.776 78.4661 226.249 79.3458 225.976C80.2032 225.71 81.1579 225.626 82.0451 225.596C83.9697 225.53 85.8932 225.671 87.8175 225.554C90.7483 225.375 93.0683 226.108 94.5029 226.898C95.5546 226.515 96.2219 226.346 97.1476 226.379C97.3483 226.386 97.5491 226.401 97.7781 226.417C98.5121 226.47 99.5363 226.543 101.777 226.468C104.878 226.364 108.045 225.401 110.241 224.519C109.037 222.771 107.769 220.313 107.401 217.579C107.193 216.042 107.464 214.692 108.185 213.557C108.872 212.474 109.859 211.764 110.758 211.259C112.159 210.471 113.962 210.028 115.252 209.047C116.295 208.255 117.635 206.724 118.864 205.111C120.077 203.518 121.014 202.07 121.275 201.588C122.242 199.802 125.094 196.72 130.758 197.397C134.335 197.825 136.054 201.05 136.965 203.299C137.595 204.854 137.889 206.581 138.668 208.072C139.1 208.564 139.49 209.164 139.819 209.701C140.441 210.718 140.94 211.877 141.76 212.757C142.217 212.808 142.68 212.81 143.139 212.797C144.038 212.77 145.081 212.65 146.017 212.383C146.983 212.108 147.631 211.734 147.977 211.344C148.235 211.054 148.449 210.632 148.273 209.765C147.57 206.316 148.452 203.192 149.677 200.857C150.593 199.11 151.785 197.648 152.848 196.738C152.875 196.073 152.849 195.233 152.709 194.38C152.497 193.096 152.072 192.059 151.465 191.444C151.13 191.105 150.829 190.802 150.56 190.533C149.58 191.972 147.98 193.344 145.511 193.796C143.291 194.203 141.113 194.26 139.23 193.803C137.324 193.34 135.581 192.304 134.605 190.452C134.41 190.082 134.193 189.639 133.999 189.242C133.882 189.003 133.773 188.78 133.683 188.601C133.395 188.033 133.162 187.631 132.943 187.351C132.811 187.183 132.724 187.112 132.687 187.086C132.648 187.091 132.573 187.107 132.451 187.157C130.9 187.788 128.731 188.141 127.029 188.325C126.067 188.429 125.098 188.508 124.13 188.506C124.05 188.603 123.957 188.721 123.86 188.847C124.073 189.023 124.283 189.228 124.461 189.464C124.683 189.757 124.972 190.252 125 190.911C125.031 191.644 124.728 192.262 124.314 192.694C123.944 193.08 123.503 193.307 123.145 193.45C122.769 193.6 122.351 193.71 121.909 193.794C120.718 194.021 119.311 193.968 118.173 194.393C117.173 195.088 116.59 196.227 115.487 196.848C114.816 197.226 113.88 197.536 112.806 197.293C111.748 197.053 110.923 196.359 110.288 195.506C109.381 194.287 109.041 194.078 108.831 193.993C108.51 193.862 108.062 193.829 106.407 193.829C105.193 193.829 104.219 194.055 103.106 194.426C102.755 194.543 102.333 194.698 101.862 194.869C100.99 195.188 99.9523 195.567 98.8952 195.882L96.1688 196.695L96.306 194.226C95.6726 194.221 94.1891 194.508 91.3813 196.062C87.2922 198.324 84.5503 199.498 82.5807 199.895C81.5641 200.101 80.6332 200.125 79.774 199.901C78.8826 199.668 78.248 199.214 77.7745 198.762C77.5106 198.511 77.1128 198.078 76.6908 197.618C76.5329 197.446 76.3714 197.27 76.2125 197.098C75.5747 196.411 74.8462 195.65 74.1048 194.975C73.3428 194.281 72.6667 193.771 72.1394 193.506C72.0026 193.437 71.9036 193.397 71.8365 193.375C70.4521 194.155 68.7329 194.592 67.3043 194.845C65.764 195.117 64.3195 195.215 63.5062 195.215C62.8323 195.215 62.084 194.967 61.5658 194.777C60.9569 194.554 60.274 194.257 59.6039 193.945C59.3303 193.817 59.0538 193.685 58.7795 193.551C58.64 195.426 58.3903 197.592 57.9867 199.74C57.341 203.175 56.2286 206.992 54.2219 209.325L53.4516 210.221L52.2953 209.979C52.1087 209.94 51.8642 209.913 51.6222 209.923C51.3995 209.932 51.2478 209.968 51.1635 210C51.1555 210.065 51.1513 210.181 51.1768 210.368C51.4348 212.246 51.6097 215.597 51.0906 219.079C50.5792 222.508 49.3401 226.43 46.4565 229.034C43.9731 231.277 41.9648 232.303 39.7361 231.943C38.7711 231.787 37.9095 231.382 37.2345 231.063L37.0602 230.98C36.3974 230.666 35.7754 230.371 35.0122 230.121L35.1116 229.818L33.0364 230.44L32.2034 233.107L32.2864 243.44L33.0364 248.44L37.7864 248.357L42.5364 251.607L43.0364 255.107L47.7034 255.773L50.3704 252.44L53.7034 251.773L55.0364 255.107L59.0364 256.44L61.7034 260.44L65.1021 260.78Z" fill="#FFFCFC"/>
<path class="m" id="Ealing" d="M147.37 185.195C147.363 185.96 147.592 186.717 147.784 187.246C147.478 188.165 146.601 189.53 144.791 189.862C142.912 190.206 141.336 190.198 140.174 189.916C139.034 189.639 138.438 189.145 138.144 188.587C137.96 188.237 137.811 187.932 137.651 187.602C137.53 187.355 137.404 187.095 137.251 186.794C136.942 186.183 136.564 185.488 136.092 184.885C135.617 184.279 134.939 183.625 133.979 183.294C132.971 182.947 131.933 183.049 130.944 183.452C129.941 183.86 128.243 184.171 126.6 184.348C125.808 184.433 125.088 184.482 124.552 184.499C124.282 184.508 124.08 184.508 123.949 184.503L123.915 184.502C123.503 184.411 123.145 184.463 122.912 184.523C122.628 184.597 122.41 184.714 122.275 184.796C122.007 184.958 121.79 185.155 121.647 185.294C121.344 185.588 121.036 185.961 120.767 186.308C120.216 187.019 119.639 187.872 119.275 188.439L118.052 190.343C117.436 190.435 116.826 190.574 116.273 190.873C115.168 191.47 114.629 192.584 113.637 193.29C112.604 192.147 111.834 190.894 110.335 190.286C109.198 189.825 107.919 189.827 106.651 189.829L106.407 189.829C104.619 189.829 103.197 190.18 101.841 190.632C101.254 190.827 100.748 191.014 100.247 191.199C99.9818 191.297 99.7182 191.394 99.4442 191.492C98.8691 190.844 98.073 190.442 97.1603 190.294C95.2803 189.988 92.7672 190.724 89.445 192.562C85.3927 194.803 83.1112 195.708 81.7896 195.974C81.1606 196.101 80.879 196.055 80.7855 196.031C80.7241 196.015 80.6658 195.992 80.5331 195.866C80.3718 195.712 80.1282 195.447 79.7746 195.061C79.5945 194.865 79.3858 194.637 79.1449 194.378C78.4854 193.667 77.6657 192.807 76.7976 192.017C75.9501 191.246 74.9553 190.446 73.9399 189.934C73.0111 189.466 71.4492 188.938 69.9768 189.829C69.2005 190.299 67.9639 190.666 66.608 190.906C65.3147 191.135 64.1239 191.212 63.5389 191.215C63.5438 191.214 63.5464 191.213 63.5464 191.213C63.5464 191.213 63.5347 191.209 63.5094 191.202C63.4377 191.184 63.2586 191.137 62.9414 191.021C62.4828 190.853 61.9142 190.608 61.2937 190.319C60.671 190.029 60.0259 189.708 59.4319 189.401C59.6397 188.982 59.8927 188.544 60.1886 188.133C60.8977 187.149 61.6503 186.593 62.365 186.461C64.6777 186.035 66.3525 184.883 67.4387 183.212C68.4695 181.627 68.8692 179.728 69.0234 177.929C69.1278 176.711 69.6896 175.368 70.4962 174.132C71.3032 172.895 72.2331 171.951 72.8502 171.506C73.507 171.031 74.0224 170.453 74.363 169.746C74.6961 169.055 74.8033 168.361 74.8279 167.747C74.8738 166.599 74.6675 165.456 74.6266 164.311C74.5955 163.44 75.0069 162.659 74.8176 161.768C74.5471 160.496 73.4594 159.775 72.2824 159.435C69.7081 158.691 66.8718 158.675 64.2239 158.497C58.4469 158.109 55.1642 155.91 53.5182 154.109L67.672 150.757L66.5427 148.499C66.4836 148.38 66.3464 148.054 66.2351 147.622C66.1594 147.329 66.1077 147.032 66.0892 146.755C66.2141 146.615 66.398 146.429 66.6512 146.196C67.3079 145.593 68.2495 144.843 69.344 144.028C71.2918 142.579 73.5928 141.024 75.3068 139.913C78.0173 140.121 83.268 139.924 87.8233 137.722C89.5317 136.897 91.4695 136.923 93.3401 137.412C95.2162 137.903 96.8278 138.812 97.6827 139.454L98.1809 139.828L98.8035 139.853C100.252 139.911 102.694 140.273 105.112 141.173C107.554 142.081 109.724 143.443 110.965 145.337L111.12 145.573L111.334 145.757C112.786 147.006 114.808 148.957 116.193 150.752C116.902 151.669 117.333 152.406 117.502 152.902L117.512 152.931C116.748 153.676 116.258 154.569 116.128 155.568C115.983 156.671 116.309 157.652 116.757 158.399C117.201 159.139 117.816 159.739 118.449 160.157C119.019 160.533 119.889 160.947 120.848 160.873C121.245 160.842 121.577 160.717 121.771 160.635C121.991 160.541 122.203 160.428 122.391 160.32C122.766 160.103 123.183 159.823 123.594 159.538C123.901 159.325 124.209 159.106 124.523 158.882C125.109 158.466 125.715 158.036 126.366 157.605C127.264 157.01 128.094 156.523 128.795 156.226C128.612 156.567 128.382 156.963 128.111 157.432L128.084 157.479C127.596 158.323 126.931 159.472 126.64 160.574C126.488 161.152 126.386 161.893 126.584 162.671C126.798 163.516 127.318 164.21 128.062 164.688C128.868 165.206 129.783 165.251 130.444 165.21C131.154 165.166 131.915 164.997 132.662 164.775C134.163 164.329 135.915 163.575 137.674 162.717C140.993 161.098 144.584 158.981 147.05 157.42C147.479 157.52 148.282 157.888 148.976 158.619C148.613 159.283 148.576 160.092 148.897 160.782C149.365 161.786 150.421 162.27 151.436 162.542C149.564 166.31 147.026 169.622 148.41 174.186C149.053 176.305 149.529 178.256 149.648 179.769C149.707 180.526 149.666 181.054 149.58 181.388C149.537 181.554 149.495 181.63 149.476 181.657C148.111 182.563 147.382 183.774 147.37 185.195Z" fill="#FFFCFC"/>
<path class="m" id="Brent" d="M159.661 156.778C157.812 156.469 155.464 156.384 152.625 156.762C151.477 155.191 149.765 153.904 147.836 153.497C147.062 153.334 146.322 153.376 145.574 153.616C142.458 155.616 139.249 157.498 135.92 159.122C134.236 159.944 132.712 160.587 131.522 160.94C131.186 161.04 130.9 161.11 130.663 161.155C130.846 160.721 131.146 160.175 131.55 159.476C131.59 159.406 131.632 159.334 131.676 159.26C132.133 158.473 132.72 157.462 133.021 156.539C133.19 156.019 133.349 155.302 133.207 154.533C133.044 153.655 132.527 152.922 131.741 152.452C130.279 151.579 128.628 152.002 127.579 152.404C126.412 152.85 125.207 153.576 124.159 154.269C123.458 154.733 122.741 155.241 122.122 155.681L122.121 155.682L122.12 155.683C121.824 155.893 121.551 156.087 121.312 156.252C121.01 156.463 120.761 156.629 120.561 156.753C120.413 156.638 120.276 156.489 120.186 156.34C120.135 156.255 120.111 156.19 120.101 156.148C120.091 156.109 120.093 156.092 120.094 156.088C120.094 156.088 120.094 156.083 120.097 156.074C120.1 156.062 120.109 156.041 120.127 156.009C120.161 155.952 120.24 155.843 120.412 155.697C121.882 154.457 121.657 152.688 121.287 151.607C120.903 150.485 120.151 149.333 119.359 148.307C117.815 146.306 115.695 144.251 114.147 142.902C112.236 140.144 109.259 138.448 106.507 137.424C104.519 136.684 102.527 136.25 100.883 136.029V134.989C100.916 134.956 100.955 134.918 101 134.876C101.171 134.717 101.382 134.54 101.656 134.315L101.747 134.24C101.987 134.043 102.265 133.815 102.537 133.576C103.619 132.625 105.633 130.648 104.717 127.809C104.402 126.834 104.569 126.232 104.808 125.772C105.034 125.34 105.258 125.09 105.559 124.754C105.726 124.568 105.916 124.356 106.143 124.072C106.56 123.552 106.678 122.952 106.725 122.657C106.784 122.289 106.8 121.898 106.798 121.532C106.794 120.793 106.714 119.922 106.605 119.06C106.491 118.154 106.337 117.196 106.177 116.31C108.86 115.681 110.985 114.031 112.618 112.575C113.111 112.135 113.583 111.691 114.015 111.284L114.122 111.183C114.594 110.739 115.012 110.347 115.408 110.006C116.263 109.269 116.743 109.014 116.995 108.959C117.981 108.743 119.287 108.98 121.063 109.604C121.781 109.856 122.506 110.145 123.272 110.449L123.276 110.451C123.427 110.511 123.58 110.572 123.734 110.633C124.651 110.996 125.625 111.372 126.594 111.668C127.241 111.866 128.107 111.997 128.963 111.639C129.922 111.239 130.397 110.433 130.586 109.735C130.759 109.094 130.731 108.443 130.664 107.926C130.593 107.382 130.456 106.823 130.294 106.296C129.97 105.24 129.498 104.145 129.049 103.249C128.857 102.867 128.645 102.472 128.428 102.109C128.905 101.499 129.671 100.677 130.62 99.7391C132.002 98.3731 133.66 96.8707 135.103 95.6117C137.37 98.3977 139.441 100.947 141.095 103.042C142.077 104.286 142.899 105.355 143.522 106.208C144.174 107.102 144.521 107.645 144.638 107.883C145.695 110.045 146.201 111.297 146.584 112.665C146.926 113.885 147.175 115.211 147.584 117.383C147.637 117.664 147.693 117.959 147.752 118.27C147.771 118.371 147.79 118.473 147.81 118.578C148.109 120.155 148.617 121.492 149.53 122.416C150.544 123.442 151.767 123.679 152.817 123.623C153.656 123.578 154.527 123.333 155.159 123.155C155.227 123.136 155.292 123.117 155.353 123.1C155.981 122.926 156.437 122.816 156.819 122.783C156.866 122.812 156.928 122.854 157.007 122.912C157.339 123.156 157.785 123.557 158.338 124.129C159.436 125.265 160.77 126.879 162.19 128.73C165.019 132.419 168.051 136.865 169.978 139.834L170.02 139.9L181.344 154.67C181.136 155.6 180.823 156.651 180.436 157.452C180.315 157.702 180.206 157.885 180.118 158.015C179.884 157.902 179.643 157.781 179.381 157.648C179.152 157.533 178.908 157.409 178.637 157.276C177.914 156.92 177.066 156.529 176.18 156.269C175.293 156.009 174.246 155.841 173.153 156.049C172.01 156.267 170.98 156.864 170.134 157.856C169.564 158.524 169.117 159.121 168.784 159.658L163.848 158.229C162.917 157.622 161.481 157.083 159.661 156.778Z" fill="#FFFCFC"/>
<path class="m" id="Camden" d="M190.982 148.508C188.256 149.053 185.768 150.232 183.896 151.424L174.081 138.622C174.264 138.342 174.474 138.031 174.703 137.709C175.771 138.006 176.699 138.625 177.824 138.75C178.42 138.816 178.901 138.633 179.188 138.484C179.482 138.331 179.717 138.14 179.885 137.983C180.222 137.671 180.525 137.284 180.783 136.917C181.311 136.168 181.877 135.176 182.417 134.145C183.366 132.334 184.337 130.212 185.033 128.599C186.621 127.729 187.963 126.496 188.998 125.333C189.624 124.629 190.168 123.917 190.612 123.267C191.493 123.457 192.375 123.454 193.08 123.402C194.467 123.3 195.808 122.956 196.653 122.662L196.708 122.643L196.762 122.621C197.844 122.173 201.307 121.275 205.227 121.894C208.23 122.368 210.333 123.523 211.393 124.292C210.939 127.928 210.961 130.837 211.64 133.276C212.414 136.058 213.985 138.034 216.189 139.739C217.69 140.901 218.942 143.097 219.926 145.557C220.683 147.45 221.19 149.248 221.549 150.519C221.648 150.868 221.735 151.178 221.813 151.439C222.246 152.881 222.341 155.404 222.317 156.551L222.278 158.43L224.151 158.586C224.417 158.608 225.804 158.999 226.633 160.693C226.898 161.234 226.953 161.568 226.965 161.757C226.977 161.939 226.961 162.049 226.926 162.301C226.917 162.36 226.908 162.426 226.898 162.503L226.896 162.515C226.849 162.86 226.729 163.745 227.286 164.627C227.77 165.395 228.559 165.826 229.218 166.125C229.418 166.216 229.567 166.312 229.68 166.405C229.355 166.616 229.036 166.869 228.742 167.17C228.177 167.748 227.722 168.491 227.512 169.374C225.909 169.58 223.615 169.859 221.316 170.101C221.024 170.132 220.822 170.127 220.69 170.114L220.693 170.091C220.718 169.902 220.781 169.693 220.858 169.52L221.538 167.981L220.138 167.047C219.413 166.564 218.792 165.815 218.305 164.991C217.82 164.168 217.54 163.392 217.441 163.002L217.071 161.553L215.576 161.498C214.702 161.466 213.33 161.298 212.133 160.922C211.536 160.735 211.06 160.519 210.728 160.298C210.392 160.073 210.323 159.925 210.316 159.907C209.967 159.011 209.819 158.05 209.631 156.834C209.596 156.603 209.558 156.362 209.518 156.111C209.285 154.659 208.947 152.896 207.95 151.282C207.39 150.374 206.581 149.762 205.615 149.51C204.709 149.274 203.839 149.397 203.149 149.603C202.483 149.801 201.853 150.116 201.302 150.46C197.98 148.101 194.245 147.856 190.982 148.508Z" fill="#FFFCFC"/>
<path class="m" id="Islington" d="M215.493 132.203C215.015 130.485 214.937 128.167 215.37 124.728L225.649 118.853L230.968 126.944L234.802 130.436L237.814 130.677C237.917 131.546 238.071 132.508 238.289 133.423C238.48 134.225 238.738 135.068 239.093 135.803C239.417 136.475 239.975 137.383 240.939 137.879C242.142 138.497 243.394 138.859 244.334 139.05L244.49 139.327L242.282 141.174L242.446 142.281C242.638 143.589 242.782 145.581 242.612 147.282C242.527 148.139 242.372 148.801 242.182 149.235C242.084 149.456 242.009 149.553 241.975 149.589C241.78 149.654 241.551 149.728 241.3 149.809L241.299 149.81C240.712 150 240.01 150.226 239.376 150.462C238.441 150.81 237.329 151.288 236.469 151.966C235.594 152.656 234.574 153.913 234.961 155.668C235.282 157.129 236.488 158.288 237.909 159.263C239.237 160.175 240.151 160.858 240.786 161.415C241.424 161.973 241.687 162.324 241.808 162.546C241.881 162.682 241.927 162.8 241.946 162.989C240.956 162.964 239.743 163.013 238.371 163.198C236.328 163.474 234.878 164.26 233.845 164.829C233.743 164.885 233.648 164.937 233.559 164.985C233.098 164.047 232.279 163.138 230.932 162.511C230.961 162.234 230.982 161.881 230.957 161.496C230.907 160.734 230.696 159.894 230.226 158.934C229.212 156.863 227.662 155.682 226.299 155.088C226.245 153.649 226.078 151.734 225.645 150.289C225.586 150.095 225.515 149.84 225.429 149.536C225.076 148.282 224.488 146.191 223.639 144.071C222.603 141.481 221.027 138.426 218.637 136.576C216.949 135.27 215.986 133.974 215.493 132.203Z" fill="#FFFCFC"/>
<path class="m" id="Hackney" d="M237.595 117.239L254.217 116.451C256.051 119.457 259.725 121.225 261.313 124.349C262.028 125.757 262.806 126.869 263.731 127.703C264.685 128.561 265.712 129.048 266.799 129.316C268.889 129.832 271.174 129.617 273.311 129.786C274.601 129.889 276.024 130.855 277.402 132.512C278.426 133.743 279.256 135.153 279.81 136.298C279.687 136.62 279.613 136.942 279.566 137.225C279.44 137.981 279.439 138.846 279.484 139.648C279.506 140.043 279.54 140.449 279.583 140.854L277.818 140.233L271.963 144.817L271.778 145.11C269.495 148.724 266.328 150.104 263.241 150.653C261.674 150.932 260.144 150.991 258.756 151.007C258.517 151.01 258.27 151.011 258.02 151.012H258.019C256.964 151.017 255.863 151.021 255.075 151.157C253.082 151.5 250.843 152.733 249.259 154.222C248.455 154.978 247.706 155.905 247.266 156.957C246.813 158.037 246.651 159.359 247.258 160.66C247.753 161.72 247.777 162.39 247.708 162.76C247.649 163.082 247.493 163.328 247.223 163.537C247.198 163.546 247.144 163.561 247.05 163.576C246.846 163.608 246.565 163.618 246.219 163.595C246.13 163.59 246.041 163.582 245.952 163.573C245.981 162.644 245.868 161.645 245.326 160.644C244.888 159.833 244.235 159.117 243.422 158.405C242.606 157.692 241.537 156.902 240.173 155.966C239.555 155.541 239.223 155.228 239.048 155.031C239.405 154.78 239.984 154.504 240.771 154.211C241.331 154.003 241.863 153.831 242.398 153.659C242.698 153.562 242.998 153.465 243.306 153.361C244.655 152.905 245.42 151.81 245.844 150.843C246.274 149.865 246.487 148.737 246.592 147.679C246.757 146.026 246.686 144.246 246.542 142.825L249.605 140.262L246.827 135.322L245.773 135.232C245.36 135.196 244.065 134.962 242.873 134.374C242.842 134.331 242.779 134.237 242.695 134.063C242.514 133.69 242.337 133.155 242.18 132.496C241.868 131.186 241.706 129.685 241.656 128.717L241.567 126.964L236.484 126.558L235.203 125.391L238.335 121.283L237.595 117.239Z" fill="#FFFCFC"/>
<path class="m" id="Tower Hamlets" d="M278.558 144.734L280.549 145.434C280.913 146.498 281.534 148.6 282.219 151.876C282.539 153.408 282.95 154.518 283.481 155.36C284.048 156.258 284.672 156.718 285.103 157.018C285.212 157.094 285.28 157.141 285.328 157.175C285.376 157.21 285.404 157.231 285.432 157.255C285.439 157.261 285.443 157.265 285.446 157.268L285.449 157.271C285.451 157.273 285.451 157.274 285.451 157.274C285.47 157.305 285.622 157.58 285.696 158.56C286.098 163.891 290.055 168.37 294.758 171.962C295.988 172.902 296.453 174.2 296.484 175.639C296.498 176.302 296.417 176.961 296.286 177.563C296.101 177.494 295.914 177.428 295.725 177.367C294.751 177.054 293.582 176.813 292.439 176.934C291.228 177.062 289.933 177.624 289.141 178.978C288.413 180.221 288.323 181.789 288.589 183.49C288.833 185.041 289.124 186.439 289.375 187.646L289.376 187.648C289.438 187.944 289.497 188.229 289.552 188.501C289.846 189.938 290.021 190.978 290.025 191.819C290.028 192.605 289.878 193.068 289.623 193.43C289.345 193.825 288.782 194.323 287.554 194.865C284.952 196.014 283.793 195.882 283.141 195.638C282.764 195.497 282.385 195.256 281.902 194.855C281.659 194.653 281.411 194.43 281.122 194.169C280.843 193.916 280.525 193.626 280.185 193.337C279.386 192.655 278.862 191.938 278.533 191.338C278.368 191.038 278.254 190.772 278.181 190.561C278.145 190.457 278.119 190.37 278.103 190.304L278.101 190.297C278.147 188.36 278.071 185.503 277.688 182.943C277.49 181.623 277.196 180.286 276.748 179.168C276.342 178.158 275.607 176.811 274.208 176.254C273.87 176.12 273.539 175.977 273.189 175.826L273.151 175.809C272.821 175.667 272.467 175.514 272.114 175.373C271.383 175.082 270.537 174.795 269.606 174.692C267.555 174.466 265.605 175.184 263.566 177.093C262.025 178.536 260.358 179.513 258.887 180.009C257.358 180.524 256.31 180.437 255.793 180.194C255.285 179.956 254.762 179.666 254.169 179.327C254.125 179.302 254.081 179.276 254.036 179.25L253.866 179.153L253.865 179.153C253.37 178.868 252.827 178.556 252.267 178.262C252.056 178.15 251.838 178.039 251.615 177.931C252.488 176.813 253.025 175.264 252.447 173.405C252.154 172.463 251.766 171.551 251.406 170.734C251.321 170.543 251.239 170.358 251.159 170.179C250.884 169.562 250.638 169.011 250.431 168.472C249.986 167.315 249.939 166.734 250.003 166.423C250.807 165.694 251.415 164.711 251.641 163.488C251.903 162.076 251.619 160.547 250.882 158.968L250.882 158.966C250.87 158.943 250.817 158.832 250.955 158.503C251.109 158.136 251.447 157.655 252 157.136C253.129 156.074 254.678 155.284 255.753 155.099C256.183 155.025 256.815 155.021 257.802 155.015C258.102 155.013 258.434 155.011 258.803 155.007C260.255 154.99 262.046 154.928 263.942 154.591C267.701 153.923 271.926 152.154 274.966 147.546L278.558 144.734Z" fill="#FFFCFC"/>
<path class="m" id="Southwark" d="M250.978 250.332C250.965 250.388 250.954 250.444 250.944 250.499C249.771 250.345 248.666 250.461 247.686 250.972C247.373 251.135 247.095 251.326 246.849 251.538C246.492 250.507 246.188 249.167 245.786 247.184C244.727 241.947 242.181 235.373 238.773 231.303C238.2 230.618 238.01 230.076 237.962 229.658C237.912 229.229 237.992 228.75 238.247 228.171C238.737 227.056 239.657 225.983 240.761 224.693C240.929 224.497 241.102 224.295 241.278 224.088C242.711 222.399 243.729 220.257 243.962 218.089C244.199 215.885 243.618 213.533 241.673 211.839C241.217 211.442 240.586 210.662 239.854 209.529C239.143 208.429 238.411 207.111 237.731 205.742C236.342 202.941 235.299 200.181 235.048 198.78C234.889 197.895 235.189 197.254 235.821 196.276C235.859 196.217 235.901 196.154 235.945 196.086C236.219 195.668 236.604 195.082 236.849 194.496C237.18 193.709 237.376 192.684 236.935 191.558C236.52 190.497 235.747 189.856 235.055 189.45C234.502 189.124 233.858 188.873 233.378 188.686C233.307 188.659 233.24 188.632 233.177 188.607C232.014 188.147 231.53 187.841 231.272 187.284C231.137 186.995 231.161 186.857 231.178 186.784C231.208 186.663 231.301 186.459 231.566 186.15C231.834 185.838 232.182 185.528 232.622 185.152L232.752 185.041C233.121 184.728 233.597 184.324 233.963 183.915C234.824 182.954 234.93 181.758 234.869 180.885C234.806 179.988 234.543 179.069 234.261 178.27C234.208 178.118 234.152 177.966 234.095 177.816C238.735 178.905 244.706 180.254 246.78 180.535C248.081 180.711 249.232 181.184 250.404 181.801C250.893 182.058 251.36 182.327 251.854 182.61L252.013 182.701C252.069 182.734 252.126 182.766 252.184 182.799C252.783 183.142 253.428 183.503 254.095 183.816C255.927 184.675 258.149 184.478 260.163 183.8C262.236 183.102 264.388 181.802 266.299 180.013C267.712 178.691 268.553 178.6 269.168 178.668C269.571 178.713 270.027 178.848 270.635 179.089C270.933 179.208 271.241 179.341 271.59 179.492L271.602 179.497C271.923 179.636 272.275 179.788 272.645 179.937C272.678 179.977 272.832 180.153 273.036 180.659C273.318 181.362 273.555 182.353 273.732 183.536C273.968 185.109 274.075 186.85 274.104 188.365C272.994 188.578 271.673 189.107 270.142 190.078C269.767 190.316 268.722 191.13 268.206 190.927C267.801 190.769 267.379 190.674 266.941 190.714C266.083 190.79 265.161 191.53 264.443 191.999C263.761 192.444 262.895 193.037 262.076 193.712C261.282 194.366 260.41 195.195 259.822 196.133C259.24 197.063 258.701 198.516 259.457 200.028L259.512 200.137C260.662 202.436 261.887 204.885 261.506 209.454C261.291 212.037 261.327 213.937 262.049 215.416C262.722 216.794 263.911 217.571 264.858 218.19C264.963 218.259 265.065 218.326 265.163 218.391C265.313 218.491 265.546 218.734 265.784 219.293C266.019 219.846 266.203 220.579 266.33 221.464C266.585 223.241 266.57 225.299 266.527 227.078C266.509 227.816 266.402 228.195 266.322 228.374C266.263 228.506 266.219 228.538 266.165 228.571C266.064 228.633 265.853 228.72 265.399 228.806C263.69 229.13 261.679 228.959 260.132 229.822C258.811 230.558 258.096 231.913 257.41 233.544C256.922 234.703 256.807 235.869 256.778 236.883C256.764 237.389 256.771 237.902 256.776 238.366C256.781 238.844 256.784 239.286 256.767 239.725C256.704 241.37 256.378 242.893 254.733 244.505C252.453 246.738 251.347 248.64 250.978 250.332Z" fill="#FFFCFC"/>
<path class="m" id="Lambeth" d="M241.866 247.977C242.233 249.791 242.545 251.243 242.955 252.508C237.567 251.881 232.994 254.1 231.085 255.026C231.003 255.066 230.926 255.104 230.853 255.139C230.812 255.158 230.773 255.177 230.735 255.195C230.378 255.365 230.106 255.607 229.966 255.737C229.793 255.898 229.621 256.08 229.461 256.262C229.138 256.627 228.772 257.087 228.394 257.585C227.633 258.586 226.731 259.857 225.865 261.087C225.703 261.318 225.542 261.546 225.383 261.772L225.371 261.789C224.675 262.779 224.022 263.709 223.48 264.451C223.172 264.872 222.918 265.208 222.726 265.446C222.466 265.489 222.123 265.539 221.714 265.59C220.833 265.7 219.697 265.81 218.53 265.872C217.353 265.935 216.195 265.946 215.25 265.873C214.938 265.849 214.667 265.816 214.439 265.778C214.474 265.726 214.511 265.67 214.552 265.612C214.862 265.168 215.265 264.694 215.708 264.186L215.847 264.027C216.217 263.604 216.647 263.111 216.945 262.688C217.261 262.24 217.482 261.651 217.639 261.163C217.816 260.615 217.986 259.954 218.139 259.222C218.445 257.756 218.699 255.914 218.79 253.944C218.965 250.129 218.551 245.317 216.167 242.007C215.382 240.915 215.106 240.01 215.031 239.222C214.95 238.387 215.08 237.568 215.288 236.555C215.299 236.497 215.312 236.438 215.324 236.378C215.34 236.303 215.357 236.227 215.373 236.149C215.775 234.266 216.343 231.609 214.276 228.901C213.278 227.593 212.388 225.169 211.703 222.398C211.218 220.437 210.872 218.46 210.656 216.89C215.093 215.139 217.8 212.018 219.333 208.737C220.725 205.759 221.151 202.655 221.103 200.282C221.408 200.047 221.672 199.792 221.896 199.554C222.495 198.916 223.033 198.141 223.493 197.38C224.416 195.851 225.176 194.126 225.602 192.989L225.729 192.65V192.287C225.729 185.724 227.78 180.655 228.863 178.761L229.861 178.037C230.092 178.567 230.31 179.094 230.489 179.601C230.727 180.273 230.853 180.797 230.878 181.165C230.884 181.249 230.884 181.311 230.882 181.353C230.712 181.523 230.475 181.726 230.118 182.031L230.023 182.111C229.59 182.481 229.025 182.97 228.533 183.542C228.038 184.118 227.523 184.882 227.29 185.845C227.046 186.855 227.154 187.916 227.644 188.97C228.634 191.1 230.568 191.877 231.705 192.327L231.94 192.42C232.458 192.623 232.77 192.747 233.029 192.898C233.081 192.929 233.12 192.955 233.149 192.976C233.056 193.189 232.908 193.416 232.633 193.839L232.555 193.961C232.525 194.007 232.494 194.055 232.461 194.105C231.75 195.207 230.663 196.993 231.111 199.487C231.466 201.467 232.721 204.643 234.148 207.519C234.877 208.988 235.682 210.443 236.494 211.7C237.284 212.923 238.159 214.083 239.046 214.855C239.788 215.502 240.116 216.442 239.985 217.661C239.85 218.918 239.222 220.328 238.228 221.5C238.084 221.669 237.931 221.847 237.771 222.032C236.706 223.266 235.337 224.852 234.586 226.56C234.125 227.605 233.837 228.806 233.988 230.116C234.14 231.437 234.719 232.692 235.706 233.871C238.538 237.254 240.884 243.124 241.866 247.977Z" fill="#FFFCFC"/>
<path class="m" id="Wandsworth" d="M167.3 215.669C175.891 221.663 183.186 222.543 188.216 219.948C193.134 217.409 195.126 211.915 193.866 206.755C193.999 206.607 194.229 206.404 194.594 206.158C195.452 205.579 196.736 204.974 198.294 204.387C201.385 203.224 205.143 202.284 207.661 201.779L207.981 201.715L208.265 201.552C210.153 200.465 212.875 199.199 215.016 198.764C216.134 198.537 216.735 198.614 216.956 198.709C216.96 198.711 216.964 198.712 216.967 198.714C216.97 198.715 216.973 198.716 216.975 198.718C216.992 198.761 217.028 198.884 217.028 199.134V199.243L217.04 199.352C217.243 201.196 217.03 204.216 215.709 207.044C214.42 209.803 212.083 212.386 207.917 213.604L206.324 214.069L206.488 215.721C206.669 217.542 207.102 220.455 207.82 223.358C208.518 226.181 209.559 229.314 211.096 231.328C212.028 232.548 211.835 233.483 211.396 235.62L211.369 235.751C211.154 236.801 210.907 238.127 211.049 239.604C211.195 241.128 211.74 242.703 212.921 244.344C214.473 246.499 214.96 250.13 214.794 253.76C214.713 255.514 214.486 257.145 214.223 258.406C214.195 258.542 214.166 258.673 214.138 258.799C210.533 257.213 208.163 256.578 206.193 256.453C205.022 256.379 204.062 256.489 203.188 256.619C202.988 256.648 202.797 256.678 202.61 256.707C201.967 256.808 201.38 256.899 200.658 256.95C199.651 257.02 198.351 256.547 196.961 255.645C195.805 254.894 194.793 253.979 194.143 253.29C193.009 249.592 190.924 247.512 189.044 246.595C188.946 245.265 188.538 244.076 188.042 243.1C187.351 241.739 186.433 240.681 185.721 240.074L184.853 239.335L183.775 239.704C177.258 241.939 170.43 240.407 167.762 239.809C167.39 239.725 167.099 239.66 166.901 239.626C166.434 239.544 166.007 239.631 165.848 239.663C165.614 239.711 165.368 239.782 165.132 239.856C164.657 240.008 164.077 240.226 163.442 240.483C162.163 240.999 160.527 241.724 158.785 242.525C156.149 243.737 153.218 245.146 150.811 246.327C150.804 246.293 150.796 246.259 150.789 246.226C150.58 245.25 150.546 244.593 150.596 244.344C150.636 244.146 150.826 243.634 151.215 242.68L151.337 242.381C151.662 241.587 152.049 240.641 152.381 239.697C152.75 238.649 153.104 237.468 153.217 236.38C153.318 235.424 153.312 233.813 152.074 232.735C151.195 231.969 149.717 231.474 149.089 230.469C148.915 230.19 148.352 229.111 150.64 225.708L151.286 224.747L150.774 223.708C150.557 223.269 150.284 222.433 150.264 221.552C150.245 220.696 150.46 219.978 150.984 219.441C151.046 219.379 151.276 219.211 151.908 219.137C152.524 219.065 153.321 219.108 154.24 219.262C156.076 219.569 158.037 220.256 159.263 220.794L161.879 221.942L162.063 219.091C162.129 218.06 162.415 216.674 162.938 215.74C163.192 215.287 163.419 215.089 163.555 215.015C163.628 214.975 163.772 214.906 164.143 215.018L164.231 215.044L167.3 215.669Z" fill="#FFFCFC"/>
<path class="m" id="Hammersmith Fullham" d="M186.812 207.083C188.084 207.577 189.251 207.987 190.101 208.27C190.714 211.679 189.27 214.902 186.381 216.393C183.216 218.027 177.508 217.972 169.417 212.267C168.424 211.203 166.392 208.08 166.392 204.018C166.392 200.946 166.021 198.593 164.818 196.996C163.494 195.237 161.555 194.877 159.923 194.741C158.653 194.636 157.663 194.613 156.787 194.758C156.756 194.421 156.712 194.077 156.655 193.73C156.384 192.082 155.756 190.097 154.312 188.634C153.278 187.586 152.548 186.868 152.051 186.392C151.873 186.221 151.711 186.068 151.567 185.936C151.521 185.812 151.482 185.703 151.445 185.583C151.389 185.403 151.374 185.302 151.371 185.254C151.381 185.241 151.397 185.223 151.42 185.2C151.471 185.15 151.557 185.077 151.695 184.986C152.694 184.328 153.208 183.336 153.453 182.387C153.693 181.456 153.713 180.437 153.636 179.456C153.481 177.491 152.896 175.197 152.238 173.025C151.478 170.519 152.355 169.061 153.291 167.505C153.596 166.997 153.908 166.478 154.172 165.91C154.623 164.934 155.257 164.082 155.52 163.015C155.681 162.363 155.75 161.435 155.252 160.535C156.757 160.464 158.005 160.557 159.001 160.723C159.838 160.863 160.468 161.05 160.914 161.22C160.899 162.737 161.059 164.626 161.564 166.453C162.222 168.827 163.594 171.529 166.407 172.771C168.22 173.571 168.856 174.782 169.102 176.034C169.324 177.166 169.222 178.224 169.128 179.216C169.102 179.487 169.076 179.753 169.058 180.015C169.048 180.155 168.971 180.442 168.716 181.105C168.684 181.188 168.65 181.276 168.614 181.369C168.405 181.906 168.136 182.597 167.938 183.318C167.445 185.122 167.307 187.446 169.049 189.758C169.689 190.607 170.696 191.55 171.785 192.467C172.903 193.409 174.222 194.417 175.573 195.4C177.948 197.128 180.482 198.819 182.322 199.997C182.547 200.947 182.899 202.109 183.385 203.205C183.712 203.941 184.126 204.709 184.646 205.376C185.156 206.031 185.864 206.714 186.812 207.083Z" fill="#FFFCFC"/>
<path class="m" id="Kensington Chelsea" d="M205.977 194.402C205.977 195.588 205.774 197.038 205.574 198.132C203.026 198.697 199.732 199.572 196.884 200.644C195.216 201.272 193.596 202.006 192.358 202.842C191.768 203.24 191.191 203.709 190.735 204.261C190.032 204.019 189.177 203.711 188.262 203.355C188.235 203.344 188.067 203.259 187.802 202.919C187.548 202.592 187.288 202.137 187.041 201.582C186.547 200.47 186.217 199.205 186.073 198.406L185.917 197.538L185.17 197.068C183.37 195.935 180.541 194.068 177.926 192.165C176.617 191.214 175.381 190.267 174.362 189.408C173.312 188.524 172.598 187.82 172.244 187.351C171.502 186.366 171.5 185.46 171.797 184.374C171.934 183.871 172.117 183.399 172.327 182.858C172.367 182.755 172.408 182.648 172.45 182.539C172.672 181.96 172.99 181.125 173.048 180.293C173.056 180.176 173.072 180.021 173.091 179.834C173.191 178.865 173.377 177.046 173.027 175.264C172.573 172.949 171.222 170.524 168.022 169.111C166.824 168.583 165.946 167.288 165.419 165.386C165.175 164.501 165.034 163.578 164.965 162.717L169.513 164.033C171.301 164.731 175.175 167.228 176.463 171.517L176.684 172.251L177.338 172.649C178.483 173.346 180.279 174.568 181.887 175.926C182.691 176.605 183.416 177.291 183.982 177.939C184.568 178.611 184.885 179.13 185.008 179.471C185.648 181.259 186.807 183.995 188.114 186.273C188.761 187.401 189.5 188.515 190.29 189.349C190.685 189.766 191.157 190.183 191.705 190.484C192.258 190.787 193.008 191.036 193.862 190.893C194.773 190.741 195.892 190.199 196.815 189.721C197.516 189.357 198.296 188.925 199.053 188.505C199.375 188.326 199.693 188.149 199.999 187.982C201.073 187.393 202.011 186.903 202.723 186.616L202.784 186.591C202.886 186.751 202.997 186.935 203.117 187.142C203.53 187.855 203.998 188.77 204.439 189.74C204.881 190.712 205.28 191.706 205.564 192.581C205.865 193.508 205.977 194.12 205.977 194.402Z" fill="#FFFCFC"/>
<path class="m" id="Westminster" d="M220.069 195.311C219.96 195.492 219.851 195.664 219.744 195.824C219.383 195.48 218.968 195.219 218.528 195.031C217.157 194.445 215.553 194.574 214.22 194.844C212.808 195.131 211.292 195.667 209.876 196.278C209.938 195.647 209.977 195.007 209.977 194.402C209.977 193.458 209.693 192.345 209.368 191.344C209.026 190.29 208.566 189.153 208.081 188.085C207.595 187.016 207.068 185.984 206.58 185.139C206.336 184.718 206.092 184.326 205.858 183.991C205.645 183.686 205.365 183.319 205.044 183.036C204.203 182.294 203.178 182.391 202.763 182.453C202.235 182.532 201.697 182.716 201.226 182.906C200.268 183.293 199.138 183.892 198.076 184.474C197.728 184.665 197.386 184.855 197.051 185.041C196.32 185.447 195.624 185.833 194.975 186.169C194.51 186.41 194.108 186.605 193.775 186.745C193.66 186.794 193.56 186.834 193.474 186.865C193.401 186.805 193.308 186.719 193.194 186.599C192.724 186.103 192.17 185.304 191.583 184.282C190.424 182.261 189.358 179.752 188.773 178.122C188.405 177.096 187.717 176.135 186.995 175.308C186.252 174.458 185.366 173.629 184.468 172.87C182.946 171.585 181.299 170.427 180.05 169.628C178.491 165.307 175.136 162.53 172.639 161.115C172.786 160.923 172.963 160.703 173.177 160.452C173.467 160.112 173.704 160.016 173.901 159.979C174.147 159.932 174.511 159.948 175.053 160.107C175.595 160.266 176.191 160.53 176.871 160.865C177.054 160.955 177.252 161.055 177.459 161.159L177.46 161.16C177.949 161.406 178.483 161.676 178.962 161.887C180.276 162.467 181.518 162.103 182.392 161.407C183.153 160.802 183.676 159.939 184.036 159.195C184.633 157.961 185.05 156.486 185.3 155.3C186.858 154.184 189.22 152.939 191.766 152.43C194.59 151.866 197.469 152.224 199.898 154.464L201.249 155.71L202.604 154.469C203.058 154.055 203.738 153.601 204.292 153.436C204.413 153.4 204.496 153.387 204.547 153.383C205.092 154.266 205.342 155.332 205.568 156.744C205.599 156.935 205.63 157.136 205.661 157.345C205.844 158.549 206.066 160.014 206.588 161.357C206.993 162.397 207.76 163.126 208.509 163.626C209.263 164.128 210.122 164.483 210.934 164.738C211.985 165.068 213.087 165.271 214.041 165.384C214.255 165.898 214.527 166.459 214.86 167.023C215.327 167.814 215.947 168.673 216.746 169.434C216.636 170.135 216.644 170.937 216.939 171.718C217.254 172.551 217.873 173.275 218.805 173.706C219.679 174.109 220.685 174.189 221.735 174.079C224.029 173.838 226.313 173.56 227.939 173.352C228.035 173.688 228.132 173.998 228.23 174.28L225.876 175.986L225.671 176.309C224.286 178.491 221.811 184.353 221.731 191.91C221.351 192.87 220.752 194.181 220.069 195.311Z" fill="#FFFCFC"/>
<path class="m c" id="London City" d="M238.906 167.162C241.287 166.84 242.895 167.033 243.287 167.116C243.944 167.307 244.941 167.521 245.961 167.587C245.99 167.589 246.019 167.591 246.049 167.592C246.173 168.449 246.443 169.246 246.698 169.908C246.946 170.555 247.249 171.232 247.53 171.864C247.604 172.03 247.677 172.192 247.746 172.35C248.098 173.147 248.406 173.883 248.627 174.594C248.713 174.871 248.687 175.033 248.651 175.142C248.607 175.276 248.502 175.456 248.28 175.669C247.904 176.031 247.36 176.324 246.88 176.505C244.105 176.05 236.521 174.291 232.104 173.233C232.089 173.194 232.074 173.152 232.058 173.108C231.868 172.579 231.635 171.796 231.417 170.733C231.364 170.474 231.393 170.329 231.417 170.252C231.445 170.167 231.498 170.073 231.602 169.967C231.788 169.776 232.061 169.627 232.291 169.543C233.656 169.518 234.808 168.873 235.578 168.442C235.647 168.404 235.713 168.367 235.776 168.332C236.744 167.799 237.644 167.333 238.906 167.162Z" fill="#FFFCFC"/>
</g>
</svg>
